<?xml version="1.0" encoding="utf-8"?>
<!-- Generator: Adobe Illustrator 16.0.3, SVG Export Plug-In . SVG Version: 6.00 Build 0)  -->
<!DOCTYPE svg PUBLIC "-//W3C//DTD SVG 1.1//EN" "http://www.w3.org/Graphics/SVG/1.1/DTD/svg11.dtd">
<svg version="1.1" id="Vrstva_1" xmlns="http://www.w3.org/2000/svg" xmlns:xlink="http://www.w3.org/1999/xlink" x="0px" y="0px"
	 width="2476px" height="1049px" viewBox="0 0 2476 1049" enable-background="new 0 0 2476 1049" xml:space="preserve">
<path fill="none" stroke="#000000" stroke-width="2" stroke-linejoin="bevel" stroke-miterlimit="10" d="M560.49,878.57l-0.07-4.473
	l-0.21-4.469l-0.349-4.459l-0.488-4.445l-0.627-4.428l-0.765-4.406l-0.902-4.381l-1.038-4.35l-1.174-4.314l-1.308-4.275
	l-1.441-4.232l-1.572-4.184l-1.703-4.133l-1.831-4.076l-1.957-4.018l-2.082-3.953l-2.204-3.887l-2.324-3.813l-2.442-3.74
	l-2.558-3.66l-2.671-3.576l-2.781-3.49l-2.889-3.402l-2.994-3.309l-3.096-3.211l-3.194-3.113l-3.29-3.012l-3.383-2.904l-3.471-2.797
	l-3.557-2.686l-3.64-2.572l-3.718-2.455l-3.792-2.338l-3.864-2.217l-3.931-2.092l-3.995-1.969l-4.054-1.84l-4.109-1.713l-4.161-1.58
	l-4.208-1.449l-4.251-1.316l-4.291-1.18l-4.325-1.043l-4.356-0.908l-4.382-0.77l-4.404-0.629l-4.421-0.49l-4.435-0.352l-4.443-0.211
	l-4.447-0.07l-4.447,0.07l-4.443,0.211l-4.435,0.352l-4.421,0.49l-4.404,0.629l-4.382,0.77l-4.355,0.908l-4.325,1.043l-4.291,1.18
	l-4.252,1.316l-4.208,1.449l-4.161,1.58l-4.11,1.713l-4.054,1.84l-3.995,1.969l-3.931,2.092l-3.864,2.217l-3.793,2.338l-3.718,2.455
	l-3.639,2.572l-3.557,2.686l-3.472,2.797l-3.382,2.904l-3.29,3.012l-3.194,3.113l-3.096,3.211l-2.994,3.309l-2.889,3.402
	l-2.781,3.49l-2.671,3.576l-2.558,3.66l-2.442,3.74l-2.324,3.813l-2.204,3.887l-2.082,3.953l-1.957,4.018l-1.831,4.076l-1.702,4.133
	l-1.573,4.184l-1.44,4.232l-1.308,4.275l-1.174,4.314l-1.038,4.35l-0.902,4.381l-0.765,4.406l-0.627,4.428l-0.488,4.445
	l-0.349,4.459l-0.21,4.469l-0.07,4.473l0.07,4.473l0.21,4.469l0.349,4.459l0.488,4.445l0.627,4.43l0.765,4.406l0.902,4.379
	l1.038,4.35l1.174,4.314l1.308,4.275l1.44,4.232l1.573,4.186l1.702,4.131l1.831,4.078l1.957,4.016l2.082,3.955l2.204,3.885
	l2.324,3.814l2.442,3.738l2.558,3.66l2.671,3.576l2.781,3.492l2.889,3.4l2.994,3.309l3.096,3.213l3.194,3.113l3.29,3.01l3.382,2.904
	l3.472,2.797l3.557,2.686l3.639,2.572l3.718,2.457l3.793,2.338l3.864,2.215l3.931,2.094l3.995,1.967l4.054,1.842l4.11,1.711
	l4.161,1.582l4.208,1.449l4.252,1.314l4.291,1.18l4.325,1.045l4.355,0.906l4.382,0.77l4.404,0.631l4.421,0.49l4.435,0.352
	l4.443,0.211l4.447,0.07l4.447-0.07l4.443-0.211l4.435-0.352l4.421-0.49l4.404-0.631l4.382-0.77l4.356-0.906l4.325-1.045l4.291-1.18
	l4.251-1.314l4.208-1.449l4.161-1.582l4.109-1.711l4.054-1.842l3.995-1.967l3.931-2.094l3.864-2.215l3.792-2.338l3.718-2.457
	l3.64-2.572l3.557-2.686l3.471-2.797l3.383-2.904l3.29-3.01l3.194-3.113l3.096-3.213l2.994-3.309l2.889-3.4l2.781-3.492l2.671-3.576
	l2.558-3.66l2.442-3.738l2.324-3.814l2.204-3.885l2.082-3.955l1.957-4.016l1.831-4.078l1.703-4.131l1.572-4.186l1.441-4.232
	l1.308-4.275l1.174-4.314l1.038-4.35l0.902-4.379l0.765-4.406l0.627-4.43l0.488-4.445l0.349-4.459l0.21-4.469L560.49,878.57
	 M1268.477,878.57l-0.07-4.473l-0.211-4.469l-0.348-4.459l-0.488-4.445l-0.627-4.428l-0.766-4.406l-0.9-4.381l-1.039-4.35
	l-1.174-4.314l-1.307-4.275l-1.441-4.232l-1.572-4.184l-1.703-4.133l-1.83-4.076l-1.957-4.018l-2.082-3.953l-2.203-3.887
	l-2.324-3.813l-2.441-3.74l-2.559-3.66l-2.67-3.576l-2.781-3.49l-2.889-3.402l-2.994-3.309l-3.096-3.211l-3.195-3.113l-3.289-3.012
	l-3.383-2.904l-3.471-2.797l-3.557-2.686l-3.641-2.572l-3.717-2.455l-3.793-2.338l-3.865-2.217l-3.932-2.092l-3.994-1.969
	l-4.055-1.84l-4.109-1.713l-4.16-1.58l-4.209-1.449l-4.25-1.316l-4.291-1.18l-4.326-1.043l-4.355-0.908l-4.381-0.77l-4.404-0.629
	l-4.421-0.49l-4.435-0.352l-4.443-0.211l-4.448-0.07l-4.447,0.07l-4.443,0.211l-4.435,0.352l-4.421,0.49l-4.404,0.629l-4.382,0.77
	l-4.356,0.908l-4.325,1.043l-4.291,1.18l-4.251,1.316l-4.209,1.449l-4.161,1.58l-4.109,1.713l-4.054,1.84l-3.995,1.969l-3.931,2.092
	l-3.864,2.217l-3.793,2.338l-3.718,2.455l-3.64,2.572l-3.557,2.686l-3.471,2.797l-3.383,2.904l-3.29,3.012l-3.194,3.113
	l-3.096,3.211l-2.993,3.309l-2.889,3.402l-2.781,3.49l-2.671,3.576l-2.558,3.66l-2.442,3.74l-2.324,3.813l-2.204,3.887l-2.082,3.953
	l-1.957,4.018l-1.831,4.076l-1.703,4.133l-1.572,4.184l-1.441,4.232l-1.308,4.275l-1.174,4.314l-1.038,4.35l-0.902,4.381
	l-0.765,4.406l-0.626,4.428l-0.488,4.445l-0.349,4.459l-0.209,4.469l-0.07,4.473l0.07,4.473l0.209,4.469l0.349,4.459l0.488,4.445
	l0.626,4.43l0.765,4.406l0.902,4.379l1.038,4.35l1.174,4.314l1.308,4.275l1.441,4.232l1.572,4.186l1.703,4.131l1.831,4.078
	l1.957,4.016l2.082,3.955l2.204,3.885l2.324,3.814l2.442,3.738l2.558,3.66l2.671,3.576l2.781,3.492l2.889,3.4l2.993,3.309
	l3.096,3.213l3.194,3.113l3.29,3.01l3.383,2.904l3.471,2.797l3.557,2.686l3.64,2.572l3.718,2.457l3.793,2.338l3.864,2.215
	l3.931,2.094l3.995,1.967l4.054,1.842l4.109,1.711l4.161,1.582l4.209,1.449l4.251,1.314l4.291,1.18l4.325,1.045l4.356,0.906
	l4.382,0.77l4.404,0.631l4.421,0.49l4.435,0.352l4.443,0.211l4.447,0.07l4.448-0.07l4.443-0.211l4.435-0.352l4.421-0.49l4.404-0.631
	l4.381-0.77l4.355-0.906l4.326-1.045l4.291-1.18l4.25-1.314l4.209-1.449l4.16-1.582l4.109-1.711l4.055-1.842l3.994-1.967
	l3.932-2.094l3.865-2.215l3.793-2.338l3.717-2.457l3.641-2.572l3.557-2.686l3.471-2.797l3.383-2.904l3.289-3.01l3.195-3.113
	l3.096-3.213l2.994-3.309l2.889-3.4l2.781-3.492l2.67-3.576l2.559-3.66l2.441-3.738l2.324-3.814l2.203-3.885l2.082-3.955
	l1.957-4.016l1.83-4.078l1.703-4.131l1.572-4.186l1.441-4.232l1.307-4.275l1.174-4.314l1.039-4.35l0.9-4.379l0.766-4.406l0.627-4.43
	l0.488-4.445l0.348-4.459l0.211-4.469L1268.477,878.57 M1268.477,166.622l-0.07-4.472l-0.211-4.468l-0.348-4.459l-0.488-4.446
	l-0.627-4.428l-0.766-4.406l-0.9-4.38l-1.039-4.35l-1.174-4.314l-1.307-4.275l-1.441-4.232l-1.572-4.185l-1.703-4.132l-1.83-4.077
	l-1.957-4.017l-2.082-3.954l-2.203-3.885l-2.324-3.814l-2.441-3.739l-2.559-3.66l-2.67-3.577l-2.781-3.491l-2.889-3.401
	l-2.994-3.309l-3.096-3.212l-3.195-3.113l-3.289-3.01l-3.383-2.905l-3.471-2.797l-3.557-2.686l-3.641-2.572l-3.717-2.456
	l-3.793-2.337l-3.865-2.216l-3.932-2.093l-3.994-1.968l-4.055-1.841l-4.109-1.712l-4.16-1.582l-4.209-1.448l-4.25-1.315l-4.291-1.18
	l-4.326-1.044l-4.355-0.907l-4.381-0.769l-4.404-0.63l-4.421-0.491l-4.435-0.351l-4.443-0.211l-4.448-0.07l-4.447,0.07l-4.443,0.211
	l-4.435,0.351l-4.421,0.491l-4.404,0.63l-4.382,0.769l-4.356,0.907l-4.325,1.044l-4.291,1.18l-4.251,1.315l-4.209,1.448
	l-4.161,1.582l-4.109,1.712l-4.054,1.841l-3.995,1.968l-3.931,2.093l-3.864,2.216l-3.793,2.337l-3.718,2.456l-3.64,2.572
	l-3.557,2.686l-3.471,2.797l-3.383,2.905l-3.29,3.01l-3.194,3.113l-3.096,3.212l-2.993,3.309l-2.889,3.401l-2.781,3.491
	l-2.671,3.577l-2.558,3.66l-2.442,3.739l-2.324,3.814l-2.204,3.885l-2.082,3.954l-1.957,4.017l-1.831,4.077l-1.703,4.132
	l-1.572,4.185l-1.441,4.232l-1.308,4.275l-1.174,4.314l-1.038,4.35l-0.902,4.38l-0.765,4.406l-0.626,4.428l-0.488,4.446
	l-0.349,4.459l-0.209,4.468l-0.07,4.472l0.07,4.473l0.209,4.468l0.349,4.459l0.488,4.446l0.626,4.429l0.765,4.406l0.902,4.38
	l1.038,4.35l1.174,4.314l1.308,4.275l1.441,4.232l1.572,4.185l1.703,4.132l1.831,4.077l1.957,4.017l2.082,3.953l2.204,3.886
	l2.324,3.814l2.442,3.739l2.558,3.66l2.671,3.577l2.781,3.491l2.889,3.401l2.993,3.309l3.096,3.212l3.194,3.113l3.29,3.01
	l3.383,2.905l3.471,2.797l3.557,2.686l3.64,2.572l3.718,2.456l3.793,2.337l3.864,2.216l3.931,2.093l3.995,1.968l4.054,1.841
	l4.109,1.712l4.161,1.581l4.209,1.449l4.251,1.315l4.291,1.18l4.325,1.044l4.356,0.907l4.382,0.769l4.404,0.63l4.421,0.49
	l4.435,0.351l4.443,0.211l4.447,0.07l4.448-0.07l4.443-0.211l4.435-0.351l4.421-0.49l4.404-0.63l4.381-0.769l4.355-0.907
	l4.326-1.044l4.291-1.18l4.25-1.315l4.209-1.449l4.16-1.581l4.109-1.712l4.055-1.841l3.994-1.968l3.932-2.093l3.865-2.216
	l3.793-2.337l3.717-2.456l3.641-2.572l3.557-2.686l3.471-2.797l3.383-2.905l3.289-3.01l3.195-3.113l3.096-3.212l2.994-3.309
	l2.889-3.401l2.781-3.491l2.67-3.577l2.559-3.66l2.441-3.739l2.324-3.814l2.203-3.886l2.082-3.953l1.957-4.017l1.83-4.077
	l1.703-4.132l1.572-4.185l1.441-4.232l1.307-4.275l1.174-4.314l1.039-4.35l0.9-4.38l0.766-4.406l0.627-4.429l0.488-4.446
	l0.348-4.459l0.211-4.468L1268.477,166.622 M560.49,166.622l-0.07-4.472l-0.21-4.468l-0.349-4.459l-0.488-4.446l-0.627-4.428
	l-0.765-4.406l-0.902-4.38l-1.038-4.35l-1.174-4.314l-1.308-4.275l-1.441-4.232l-1.572-4.185l-1.703-4.132l-1.831-4.077
	l-1.957-4.017l-2.082-3.954l-2.204-3.885l-2.324-3.814l-2.442-3.739l-2.558-3.66l-2.671-3.577l-2.781-3.491l-2.889-3.401
	l-2.994-3.309l-3.096-3.212l-3.194-3.113l-3.29-3.01l-3.383-2.905l-3.471-2.797l-3.557-2.686l-3.64-2.572l-3.718-2.456l-3.792-2.337
	l-3.864-2.216l-3.931-2.093l-3.995-1.968l-4.054-1.841l-4.109-1.712l-4.161-1.582l-4.208-1.448l-4.251-1.315l-4.291-1.18
	l-4.325-1.044l-4.356-0.907l-4.382-0.769l-4.404-0.63l-4.421-0.491l-4.435-0.351l-4.443-0.211l-4.447-0.07l-4.447,0.07l-4.443,0.211
	l-4.435,0.351l-4.421,0.491l-4.404,0.63l-4.382,0.769l-4.355,0.907l-4.325,1.044l-4.291,1.18l-4.252,1.315l-4.208,1.448
	l-4.161,1.582l-4.11,1.712l-4.054,1.841l-3.995,1.968l-3.931,2.093l-3.864,2.216l-3.793,2.337l-3.718,2.456l-3.639,2.572
	l-3.557,2.686l-3.472,2.797l-3.382,2.905l-3.29,3.01l-3.194,3.113l-3.096,3.212l-2.994,3.309l-2.889,3.401l-2.781,3.491
	l-2.671,3.577l-2.558,3.66l-2.442,3.739l-2.324,3.814l-2.204,3.885l-2.082,3.954l-1.957,4.017l-1.831,4.077l-1.702,4.132
	l-1.573,4.185l-1.44,4.232l-1.308,4.275l-1.174,4.314l-1.038,4.35l-0.902,4.38l-0.765,4.406l-0.627,4.428l-0.488,4.446l-0.349,4.459
	l-0.21,4.468l-0.07,4.472l0.07,4.473l0.21,4.468l0.349,4.459l0.488,4.446l0.627,4.429l0.765,4.406l0.902,4.38l1.038,4.35
	l1.174,4.314l1.308,4.275l1.44,4.232l1.573,4.185l1.702,4.132l1.831,4.077l1.957,4.017l2.082,3.953l2.204,3.886l2.324,3.814
	l2.442,3.739l2.558,3.66l2.671,3.577l2.781,3.491l2.889,3.401l2.994,3.309l3.096,3.212l3.194,3.113l3.29,3.01l3.382,2.905
	l3.472,2.797l3.557,2.686l3.639,2.572l3.718,2.456l3.793,2.337l3.864,2.216l3.931,2.093l3.995,1.968l4.054,1.841l4.11,1.712
	l4.161,1.581l4.208,1.449l4.252,1.315l4.291,1.18l4.325,1.044l4.355,0.907l4.382,0.769l4.404,0.63l4.421,0.49l4.435,0.351
	l4.443,0.211l4.447,0.07l4.447-0.07l4.443-0.211l4.435-0.351l4.421-0.49l4.404-0.63l4.382-0.769l4.356-0.907l4.325-1.044l4.291-1.18
	l4.251-1.315l4.208-1.449l4.161-1.581l4.109-1.712l4.054-1.841l3.995-1.968l3.931-2.093l3.864-2.216l3.792-2.337l3.718-2.456
	l3.64-2.572l3.557-2.686l3.471-2.797l3.383-2.905l3.29-3.01l3.194-3.113l3.096-3.212l2.994-3.309l2.889-3.401l2.781-3.491
	l2.671-3.577l2.558-3.66l2.442-3.739l2.324-3.814l2.204-3.886l2.082-3.953l1.957-4.017l1.831-4.077l1.703-4.132l1.572-4.185
	l1.441-4.232l1.308-4.275l1.174-4.314l1.038-4.35l0.902-4.38l0.765-4.406l0.627-4.429l0.488-4.446l0.349-4.459l0.21-4.468
	L560.49,166.622 M914.483,522.596l-0.07-4.473l-0.21-4.468l-0.349-4.459l-0.488-4.446l-0.626-4.428l-0.765-4.407l-0.902-4.38
	l-1.038-4.349l-1.174-4.314l-1.308-4.276l-1.441-4.232l-1.572-4.185l-1.703-4.132l-1.831-4.077l-1.957-4.017L896.969,454
	l-2.204-3.886l-2.324-3.814l-2.442-3.739l-2.558-3.66l-2.671-3.577l-2.781-3.491l-2.889-3.401l-2.994-3.308l-3.096-3.212
	l-3.194-3.113l-3.29-3.011l-3.383-2.905l-3.471-2.797l-3.557-2.686l-3.64-2.572l-3.718-2.456l-3.793-2.337l-3.864-2.216
	l-3.932-2.093l-3.995-1.968l-4.054-1.841l-4.109-1.712l-4.161-1.581l-4.208-1.449l-4.252-1.315l-4.291-1.18l-4.325-1.044
	l-4.356-0.907l-4.382-0.769l-4.404-0.63l-4.421-0.491l-4.435-0.351l-4.443-0.211l-4.448-0.07l-4.448,0.07l-4.443,0.211l-4.434,0.351
	l-4.421,0.491l-4.404,0.63l-4.382,0.769l-4.356,0.907l-4.325,1.044l-4.291,1.18l-4.251,1.315l-4.208,1.449l-4.161,1.581
	l-4.109,1.712l-4.054,1.841l-3.995,1.968l-3.932,2.093l-3.864,2.216l-3.793,2.337l-3.718,2.456l-3.639,2.572l-3.557,2.686
	l-3.472,2.797l-3.382,2.905l-3.29,3.01l-3.194,3.113l-3.096,3.212l-2.994,3.308l-2.889,3.401l-2.781,3.491l-2.671,3.577l-2.557,3.66
	l-2.442,3.739l-2.324,3.814L648.806,454l-2.082,3.953l-1.957,4.017l-1.831,4.077l-1.702,4.132l-1.573,4.185l-1.441,4.232
	l-1.308,4.276l-1.174,4.314l-1.038,4.349l-0.902,4.38l-0.765,4.407l-0.627,4.428l-0.488,4.446l-0.349,4.459l-0.21,4.468l-0.07,4.473
	l0.07,4.472l0.21,4.468l0.349,4.459l0.488,4.445l0.627,4.43l0.765,4.406l0.902,4.379l1.038,4.35l1.174,4.314l1.308,4.275
	l1.441,4.232l1.573,4.186l1.702,4.131l1.831,4.078l1.957,4.016l2.082,3.955l2.204,3.885l2.324,3.814l2.442,3.738l2.557,3.66
	l2.671,3.576l2.781,3.49l2.889,3.402l2.994,3.309l3.096,3.211l3.194,3.113l3.29,3.012l3.383,2.904l3.471,2.797l3.557,2.686
	l3.639,2.572l3.718,2.457l3.793,2.336l3.864,2.217l3.932,2.094l3.995,1.967l4.054,1.842l4.109,1.711l4.161,1.582l4.208,1.449
	l4.251,1.314l4.291,1.18l4.325,1.045l4.356,0.906l4.382,0.77l4.404,0.631l4.421,0.49l4.434,0.352l4.443,0.211l4.448,0.07l4.448-0.07
	l4.443-0.211l4.435-0.352l4.421-0.49l4.404-0.631l4.382-0.77l4.356-0.906l4.325-1.045l4.291-1.18l4.251-1.314l4.209-1.449
	l4.161-1.582l4.109-1.711l4.054-1.842l3.995-1.967l3.932-2.094l3.864-2.217l3.793-2.336l3.718-2.457l3.64-2.572l3.557-2.686
	l3.471-2.797l3.383-2.904l3.29-3.012l3.194-3.113l3.096-3.211l2.994-3.309l2.889-3.402l2.781-3.49l2.671-3.576l2.558-3.66
	l2.442-3.738l2.324-3.814l2.204-3.885l2.082-3.955l1.957-4.016l1.831-4.078l1.703-4.131l1.572-4.186l1.441-4.232l1.308-4.275
	l1.174-4.314l1.038-4.35l0.902-4.379l0.765-4.406l0.627-4.43l0.488-4.445l0.349-4.459l0.21-4.468L914.483,522.596 M1976.461,878.57
	l-0.07-4.473l-0.209-4.469l-0.35-4.459l-0.486-4.445l-0.627-4.428l-0.766-4.406l-0.902-4.381l-1.037-4.35l-1.174-4.314l-1.309-4.275
	l-1.439-4.232l-1.574-4.184l-1.701-4.133l-1.83-4.076l-1.957-4.018l-2.082-3.953l-2.205-3.887l-2.322-3.813l-2.443-3.74l-2.557-3.66
	l-2.672-3.576l-2.781-3.49l-2.889-3.402l-2.994-3.309l-3.096-3.211l-3.193-3.113l-3.291-3.012l-3.383-2.904l-3.471-2.797
	l-3.557-2.686l-3.639-2.572l-3.719-2.455l-3.793-2.338l-3.863-2.217l-3.932-2.092l-3.994-1.969l-4.055-1.84l-4.109-1.713l-4.16-1.58
	l-4.209-1.449l-4.252-1.316l-4.291-1.18l-4.324-1.043l-4.355-0.908l-4.383-0.77l-4.404-0.629l-4.42-0.49l-4.436-0.352l-4.443-0.211
	l-4.447-0.07l-4.447,0.07l-4.443,0.211l-4.436,0.352l-4.42,0.49l-4.404,0.629l-4.383,0.77l-4.355,0.908l-4.324,1.043l-4.291,1.18
	l-4.252,1.316l-4.209,1.449l-4.16,1.58l-4.109,1.713l-4.055,1.84l-3.994,1.969l-3.932,2.092l-3.863,2.217l-3.793,2.338l-3.719,2.455
	l-3.639,2.572l-3.557,2.686l-3.473,2.797l-3.383,2.904l-3.289,3.012l-3.195,3.113l-3.096,3.211l-2.994,3.309l-2.889,3.402
	l-2.781,3.49l-2.67,3.576l-2.559,3.66l-2.441,3.74l-2.324,3.813l-2.203,3.887l-2.082,3.953l-1.957,4.018l-1.83,4.076l-1.703,4.133
	l-1.572,4.184l-1.441,4.232l-1.307,4.275l-1.174,4.314l-1.039,4.35l-0.902,4.381l-0.764,4.406l-0.627,4.428l-0.488,4.445
	l-0.35,4.459l-0.209,4.469l-0.07,4.473l0.07,4.473l0.209,4.469l0.35,4.459l0.488,4.445l0.627,4.43l0.764,4.406l0.902,4.379
	l1.039,4.35l1.174,4.314l1.307,4.275l1.441,4.232l1.572,4.186l1.703,4.131l1.83,4.078l1.957,4.016l2.082,3.955l2.203,3.885
	l2.324,3.814l2.441,3.738l2.559,3.66l2.67,3.576l2.781,3.492l2.889,3.4l2.994,3.309l3.096,3.213l3.195,3.113l3.289,3.01l3.383,2.904
	l3.473,2.797l3.557,2.686l3.639,2.572l3.719,2.457l3.793,2.338l3.863,2.215l3.932,2.094l3.994,1.967l4.055,1.842l4.109,1.711
	l4.16,1.582l4.209,1.449l4.252,1.314l4.291,1.18l4.324,1.045l4.355,0.906l4.383,0.77l4.404,0.631l4.42,0.49l4.436,0.352l4.443,0.211
	l4.447,0.07l4.447-0.07l4.443-0.211l4.436-0.352l4.42-0.49l4.404-0.631l4.383-0.77l4.355-0.906l4.324-1.045l4.291-1.18l4.252-1.314
	l4.209-1.449l4.16-1.582l4.109-1.711l4.055-1.842l3.994-1.967l3.932-2.094l3.863-2.215l3.793-2.338l3.719-2.457l3.639-2.572
	l3.557-2.686l3.471-2.797l3.383-2.904l3.291-3.01l3.193-3.113l3.096-3.213l2.994-3.309l2.889-3.4l2.781-3.492l2.672-3.576
	l2.557-3.66l2.443-3.738l2.322-3.814l2.205-3.885l2.082-3.955l1.957-4.016l1.83-4.078l1.701-4.131l1.574-4.186l1.439-4.232
	l1.309-4.275l1.174-4.314l1.037-4.35l0.902-4.379l0.766-4.406l0.627-4.43l0.486-4.445l0.35-4.459l0.209-4.469L1976.461,878.57
	 M1976.461,166.622l-0.07-4.472l-0.209-4.468l-0.35-4.459l-0.486-4.446l-0.627-4.428l-0.766-4.406l-0.902-4.38l-1.037-4.35
	l-1.174-4.314l-1.309-4.275l-1.439-4.232l-1.574-4.185l-1.701-4.132l-1.83-4.077l-1.957-4.017l-2.082-3.954l-2.205-3.885
	l-2.322-3.814l-2.443-3.739l-2.557-3.66l-2.672-3.577l-2.781-3.491l-2.889-3.401l-2.994-3.309l-3.096-3.212l-3.193-3.113
	l-3.291-3.01l-3.383-2.905l-3.471-2.797l-3.557-2.686l-3.639-2.572l-3.719-2.456l-3.793-2.337l-3.863-2.216l-3.932-2.093
	l-3.994-1.968l-4.055-1.841l-4.109-1.712l-4.16-1.582l-4.209-1.448l-4.252-1.315l-4.291-1.18l-4.324-1.044l-4.355-0.907
	l-4.383-0.769l-4.404-0.63l-4.42-0.491l-4.436-0.351l-4.443-0.211l-4.447-0.07l-4.447,0.07l-4.443,0.211l-4.436,0.351l-4.42,0.491
	l-4.404,0.63l-4.383,0.769l-4.355,0.907l-4.324,1.044l-4.291,1.18l-4.252,1.315l-4.209,1.448l-4.16,1.582l-4.109,1.712l-4.055,1.841
	l-3.994,1.968l-3.932,2.093l-3.863,2.216l-3.793,2.337l-3.719,2.456l-3.639,2.572l-3.557,2.686l-3.473,2.797l-3.383,2.905
	l-3.289,3.01l-3.195,3.113l-3.096,3.212l-2.994,3.309l-2.889,3.401l-2.781,3.491l-2.67,3.577l-2.559,3.66l-2.441,3.739l-2.324,3.814
	l-2.203,3.885l-2.082,3.954l-1.957,4.017l-1.83,4.077l-1.703,4.132l-1.572,4.185l-1.441,4.232l-1.307,4.275l-1.174,4.314
	l-1.039,4.35l-0.902,4.38l-0.764,4.406l-0.627,4.428l-0.488,4.446l-0.35,4.459l-0.209,4.468l-0.07,4.472l0.07,4.473l0.209,4.468
	l0.35,4.459l0.488,4.446l0.627,4.429l0.764,4.406l0.902,4.38l1.039,4.35l1.174,4.314l1.307,4.275l1.441,4.232l1.572,4.185
	l1.703,4.132l1.83,4.077l1.957,4.017l2.082,3.953l2.203,3.886l2.324,3.814l2.441,3.739l2.559,3.66l2.67,3.577l2.781,3.491
	l2.889,3.401l2.994,3.309l3.096,3.212l3.195,3.113l3.289,3.01l3.383,2.905l3.473,2.797l3.557,2.686l3.639,2.572l3.719,2.456
	l3.793,2.337l3.863,2.216l3.932,2.093l3.994,1.968l4.055,1.841l4.109,1.712l4.16,1.581l4.209,1.449l4.252,1.315l4.291,1.18
	l4.324,1.044l4.355,0.907l4.383,0.769l4.404,0.63l4.42,0.49l4.436,0.351l4.443,0.211l4.447,0.07l4.447-0.07l4.443-0.211l4.436-0.351
	l4.42-0.49l4.404-0.63l4.383-0.769l4.355-0.907l4.324-1.044l4.291-1.18l4.252-1.315l4.209-1.449l4.16-1.581l4.109-1.712l4.055-1.841
	l3.994-1.968l3.932-2.093l3.863-2.216l3.793-2.337l3.719-2.456l3.639-2.572l3.557-2.686l3.471-2.797l3.383-2.905l3.291-3.01
	l3.193-3.113l3.096-3.212l2.994-3.309l2.889-3.401l2.781-3.491l2.672-3.577l2.557-3.66l2.443-3.739l2.322-3.814l2.205-3.886
	l2.082-3.953l1.957-4.017l1.83-4.077l1.701-4.132l1.574-4.185l1.439-4.232l1.309-4.275l1.174-4.314l1.037-4.35l0.902-4.38
	l0.766-4.406l0.627-4.429l0.486-4.446l0.35-4.459l0.209-4.468L1976.461,166.622 M1622.469,522.596l-0.07-4.473l-0.209-4.468
	l-0.35-4.459l-0.488-4.446l-0.627-4.428l-0.764-4.407l-0.902-4.38l-1.039-4.349l-1.174-4.314l-1.307-4.276l-1.441-4.232
	l-1.572-4.185l-1.703-4.132l-1.83-4.077l-1.957-4.017l-2.082-3.953l-2.203-3.886l-2.324-3.814l-2.441-3.739l-2.559-3.66l-2.67-3.577
	l-2.781-3.491l-2.889-3.401l-2.994-3.308l-3.096-3.212l-3.195-3.113l-3.289-3.011l-3.383-2.905l-3.471-2.797l-3.557-2.686
	l-3.641-2.572l-3.717-2.456l-3.793-2.337l-3.863-2.216l-3.932-2.093l-3.996-1.968l-4.053-1.841l-4.109-1.712l-4.162-1.581
	l-4.209-1.449l-4.25-1.315l-4.291-1.18l-4.326-1.044l-4.355-0.907l-4.381-0.769l-4.404-0.63l-4.422-0.491l-4.434-0.351l-4.443-0.211
	l-4.447-0.07l-4.449,0.07l-4.443,0.211l-4.434,0.351l-4.422,0.491l-4.402,0.63l-4.383,0.769l-4.355,0.907l-4.326,1.044l-4.289,1.18
	l-4.252,1.315l-4.209,1.449l-4.16,1.581l-4.109,1.712l-4.055,1.841l-3.994,1.968l-3.932,2.093l-3.863,2.216l-3.793,2.337
	l-3.719,2.456l-3.639,2.572l-3.559,2.686l-3.471,2.797l-3.383,2.905l-3.289,3.01l-3.195,3.113l-3.096,3.212l-2.992,3.308
	l-2.891,3.401l-2.781,3.491l-2.67,3.577l-2.559,3.66l-2.441,3.739l-2.324,3.814l-2.203,3.886l-2.082,3.953l-1.957,4.017l-1.83,4.077
	l-1.703,4.132l-1.572,4.185l-1.439,4.232l-1.309,4.276l-1.174,4.314l-1.037,4.349l-0.902,4.38l-0.766,4.407l-0.627,4.428
	l-0.486,4.446l-0.35,4.459l-0.211,4.468l-0.068,4.473l0.068,4.472l0.211,4.468l0.35,4.459l0.486,4.445l0.627,4.43l0.766,4.406
	l0.902,4.379l1.037,4.35l1.174,4.314l1.309,4.275l1.439,4.232l1.572,4.186l1.703,4.131l1.83,4.078l1.957,4.016l2.082,3.955
	l2.203,3.885l2.324,3.814l2.441,3.738l2.559,3.66l2.67,3.576l2.781,3.49l2.891,3.402l2.992,3.309l3.096,3.211l3.195,3.113
	l3.289,3.012l3.383,2.904l3.471,2.797l3.559,2.686l3.639,2.572l3.719,2.457l3.793,2.336l3.863,2.217l3.932,2.094l3.994,1.967
	l4.055,1.842l4.109,1.711l4.16,1.582l4.209,1.449l4.252,1.314l4.289,1.18l4.326,1.045l4.355,0.906l4.383,0.77l4.402,0.631
	l4.422,0.49l4.434,0.352l4.443,0.211l4.449,0.07l4.447-0.07l4.443-0.211l4.434-0.352l4.422-0.49l4.404-0.631l4.381-0.77l4.355-0.906
	l4.326-1.045l4.291-1.18l4.25-1.314l4.209-1.449l4.162-1.582l4.109-1.711l4.053-1.842l3.996-1.967l3.932-2.094l3.863-2.217
	l3.793-2.336l3.717-2.457l3.641-2.572l3.557-2.686l3.471-2.797l3.383-2.904l3.289-3.012l3.195-3.113l3.096-3.211l2.994-3.309
	l2.889-3.402l2.781-3.49l2.67-3.576l2.559-3.66l2.441-3.738l2.324-3.814l2.203-3.885l2.082-3.955l1.957-4.016l1.83-4.078
	l1.703-4.131l1.572-4.186l1.441-4.232l1.307-4.275l1.174-4.314l1.039-4.35l0.902-4.379l0.764-4.406l0.627-4.43l0.488-4.445
	l0.35-4.459l0.209-4.468L1622.469,522.596 M41.313,763.057l22.243,13.195l22.242,10.414l22.242,7.523l22.242,4.547l22.242,1.52
	l22.242-1.52l22.242-4.547l22.242-7.523l22.242-10.414l22.242-13.195l22.242-15.828l22.242-18.291l22.242-20.549l22.242-22.588
	l22.242-24.373l22.242-25.896l22.242-27.133l22.242-28.072l22.242-28.705l22.242-29.023l22.242-29.023l22.242-28.705l22.242-28.073
	l22.242-27.133l22.242-25.896l22.242-24.374l22.242-22.586l22.242-20.551l22.242-18.29l22.242-15.829l22.242-13.194l22.242-10.415
	l22.242-7.522l22.242-4.546l22.242-1.521l22.242,1.521l22.242,4.546l22.242,7.522l22.242,10.415l22.242,13.194l22.242,15.829
	l22.242,18.29l22.242,20.551l22.242,22.586l22.242,24.374l22.242,25.896l22.242,27.133l22.242,28.073l22.242,28.705l22.243,29.023
	l22.242,29.023l22.242,28.705l22.242,28.072l22.242,27.133l22.242,25.896l22.242,24.373l22.242,22.588l22.242,20.549l22.242,18.291
	l22.242,15.828l22.24,13.195l22.242,10.414l22.242,7.523l22.242,4.547l22.242,1.52l22.242-1.52l22.242-4.547l22.242-7.523
	l22.242-10.414l22.242-13.195l22.242-15.828l22.242-18.291l22.242-20.549l22.242-22.588l22.242-24.373l22.242-25.896l22.242-27.133
	l22.242-28.072l22.242-28.705l22.24-29.023l22.242-29.023l22.242-28.705l22.242-28.073l22.242-27.133l22.242-25.896l22.242-24.374
	l22.24-22.586l22.242-20.551l22.242-18.29l22.242-15.829l22.242-13.194l22.242-10.415l22.242-7.522l22.242-4.546l22.242-1.521
	l22.242,1.521l22.24,4.546l22.242,7.522l22.242,10.415l22.242,13.194"/>
<polyline fill="none" stroke="#E9A400" stroke-width="5" stroke-linejoin="bevel" stroke-miterlimit="10" points="46.263,771.914 
	86.293,785.117 125.978,797.508 163.386,807.842 194.394,813.82 210.736,813.533 218.146,807.352 223.064,796.73 229.336,782.949 
	238.887,766.43 252.271,748.168 269.987,728.715 291.782,709.92 317.59,693.27 347.117,680.303 380.862,671.672 417.625,666.568 
	456.607,660.379 494.679,644.721 539.586,598.83 554.497,558.855 560.45,518.208 565.867,479.856 574.955,445.368 588.301,415.608 
	605.408,389.778 625.095,367.821 646.14,349.674 667.981,334.941 690.156,323.436 712.543,314.953 735.133,309.397 758.888,306.715 
	784.377,306.87 812.874,309.041 843.865,310.787 876.801,307.945 918.696,286.853 936.334,281.665 946.054,283.079 953.942,290.738 
	963.817,302.952 977.134,317.627 994.184,333.025 1015.178,347.679 1039.606,360.188 1067.717,370.891 1098.978,382.571 
	1133.009,401.461 1168.572,433.619 1217.748,485.427 1249.533,526.222 1269.709,567.777 1281.23,609.242 1285.264,649.363 
	1272.127,696.369 1275.012,719.314 1286.158,730.549 1307.039,732.16 1348.293,716.842 1377.475,717.99 1403.268,724.229 
	1426.379,731.455 1447.822,737.006 1468.387,739.852 1489.863,739.797 1512.832,736.916 1538.813,731.945 1567.926,727.1 
	1599.389,726.299 1641.68,742.443 1661.857,743.018 1674.205,738.244 1683.102,730.576 1691.027,721.617 1698.66,710.91 
	1705.867,694.92 1713.146,666.762 1712.117,608.154 1740.195,554.004 1776.834,496.591 1817.254,439.794 1845.396,402.992 
	1874.533,381.234 1903.24,368.003 1929.59,356.636 1953.641,343.474 1974.391,328.132 1992.309,310.884 2006.912,293.073 
	2018.219,275.649 2026.688,259.155 2033.719,244.824 2043.197,233.872 2061.453,228.625 2093.906,230.532 2131.875,236.403 
	2170.443,245.012 2207.498,255.252 2242.91,266.433 2277.484,278.09 "/>
<polyline fill="none" stroke="#D83FFF" stroke-width="5" stroke-linejoin="bevel" stroke-miterlimit="10" points="32.896,761.641 
	70.437,777.93 112.186,793.537 158.913,808.275 201.459,817.148 213.409,817.383 216.143,811.164 219.823,800.783 226.12,787.707 
	236.122,770.574 249.719,751.432 269.05,729.539 292.491,709.104 319.038,691.6 345.889,678.525 374.876,669.346 402.101,664.855 
	431.302,663.111 460.639,657.469 552.345,566.211 557.511,533.79 559.259,502.635 564.453,472.38 574.386,442.656 587.86,415.973 
	605.62,390.02 626.538,367.007 648.49,348.498 671.369,333.665 694.287,322.432 716.688,314.451 736.9,309.462 756.546,306.591 
	774.778,305.695 795.506,306.87 816.567,309.732 840.892,311.792 921.628,248.738 929.822,252.373 935.498,261.918 944.342,277.213 
	957.991,296.479 975.769,316.535 996.875,335.441 1021.24,352.333 1045.033,364.764 1068.678,373.417 1090.732,379.688 
	1112.969,391.166 1134.771,420.841 1228.508,517.081 1257.631,543.166 1269.996,568.734 1278.092,594.992 1287.801,620.166 
	1246.762,697.008 1264.797,714.361 1283.016,731.807 1300.426,749.457 1373.4,710.234 1393.412,720.395 1413.121,728.307 
	1432.311,733.988 1450.959,737.662 1467.729,739.516 1485.92,739.918 1503.027,738.764 1522.564,735.615 1543.459,730.422 
	1564.352,724.791 1642.053,775.281 1655.029,761.844 1668.205,744.197 1683.52,726.756 1700.035,711.369 1715.826,698.949 
	1729.799,688.629 1743.266,675.061 1698.963,584.396 1743.551,546.852 1796.273,495.556 1857.404,415.471 1860.004,390.752 
	1875.191,379.493 1898.047,372.031 1921.662,362.71 1947.717,348.348 1970.754,331.292 1992.018,310.93 2008.773,290.685 
	2021.219,272.231 2030.283,255.264 2035.701,241.386 2040.352,229.567 2054.553,224.028 2099.855,230.718 2149.256,239.307 
	2189.906,248.847 2221.066,258.829 2246.441,269.805 2269.715,282.159 "/>
<polyline fill="none" stroke="#FF0000" stroke-width="5" stroke-linejoin="bevel" stroke-miterlimit="10" points="52.022,789.924 
	76.165,792.838 100.196,795.449 123.877,797.303 146.85,797.789 168.531,796.473 188.935,792.895 208.385,786.873 227.365,778.43 
	246.431,767.635 266.05,754.742 286.642,739.939 308.364,723.553 331.249,705.746 355.139,686.576 379.896,665.893 405.113,643.5 
	430.553,619.121 455.791,592.646 482.365,562.271 505.487,532.837 527.18,503.135 547.738,473.717 567.615,445.13 587.221,417.961 
	606.947,392.567 627.007,369.347 647.482,348.583 668.431,330.377 689.837,314.761 711.662,301.667 733.824,290.963 756.342,282.45 
	779.156,275.933 802.332,271.245 825.709,268.301 849.226,267.183 874.287,266.361 896.801,270.104 918.591,276.816 
	939.915,286.548 961.129,299.126 982.55,314.251 1004.426,331.653 1026.92,351.157 1049.967,372.626 1073.525,396.119 
	1097.416,421.712 1121.511,449.423 1145.551,478.976 1171.35,511.735 1194.221,542.805 1215.703,573.66 1235.75,603.799 
	1254.684,632.566 1271.5,660.889 1290.318,684.621 1309.959,705.043 1330.633,722.055 1353.893,734.209 1376.035,745.262 
	1398.41,754.023 1420.877,760.758 1443.389,765.639 1465.926,768.791 1488.646,770.311 1511.533,770.254 1534.732,768.631 
	1558.188,765.381 1581.742,760.34 1606.91,754.809 1629.717,744.713 1651.801,731.455 1673.17,714.951 1693.939,695.182 
	1714.258,672.188 1734.322,646.059 1754.404,617.006 1772.941,583.58 1794.289,550.492 1816.385,516.679 1839.043,482.929 
	1859.98,452.257 1881.248,423.429 1902.697,396.77 1924.061,372.304 1945.279,349.85 1966.082,329.353 1986.473,310.744 
	2006.457,294.178 2026.266,279.837 2046.289,267.89 2066.955,258.559 2088.721,251.899 2111.871,247.92 2136.379,246.406 
	2161.695,246.83 2187.424,248.796 2213.322,251.839 2239.268,255.519 2265.215,259.46 "/>
<polyline fill="none" stroke="#159BFF" stroke-width="5" stroke-linejoin="bevel" stroke-miterlimit="10" points="41.313,763.057 
	63.555,776.252 85.797,786.666 108.039,794.189 130.281,798.736 152.523,800.256 174.766,798.736 197.008,794.189 219.25,786.666 
	241.492,776.252 263.734,763.057 285.977,747.229 308.218,728.938 330.46,708.389 352.703,685.801 374.945,661.428 397.187,635.531 
	419.429,608.398 441.671,580.326 463.914,551.621 486.156,522.598 508.397,493.574 530.64,464.87 552.882,436.796 575.124,409.664 
	597.366,383.768 619.608,359.394 641.851,336.808 664.093,316.257 686.334,297.967 708.577,282.138 730.819,268.944 
	753.061,258.529 775.303,251.006 797.545,246.46 819.788,244.938 842.03,246.46 864.272,251.006 886.514,258.529 908.756,268.944 
	930.998,282.138 953.24,297.967 975.482,316.257 997.725,336.808 1019.967,359.394 1042.208,383.768 1064.451,409.664 
	1086.693,436.796 1108.935,464.87 1131.177,493.574 1153.42,522.598 1175.662,551.621 1197.904,580.326 1220.146,608.398 
	1242.389,635.531 1264.631,661.428 1286.873,685.801 1309.115,708.389 1331.357,728.938 1353.6,747.229 1375.842,763.057 
	1398.082,776.252 1420.324,786.666 1442.566,794.189 1464.809,798.736 1487.051,800.256 1509.293,798.736 1531.535,794.189 
	1553.777,786.666 1576.02,776.252 1598.262,763.057 1620.504,747.229 1642.746,728.938 1664.988,708.389 1687.23,685.801 
	1709.473,661.428 1731.715,635.531 1753.957,608.398 1776.199,580.326 1798.441,551.621 1820.682,522.598 1842.924,493.574 
	1865.166,464.87 1887.408,436.796 1909.65,409.664 1931.893,383.768 1954.135,359.394 1976.375,336.808 1998.617,316.257 
	2020.859,297.967 2043.102,282.138 2065.344,268.944 2087.586,258.529 2109.828,251.006 2132.07,246.46 2154.313,244.938 
	2176.555,246.46 2198.795,251.006 2221.037,258.529 2243.279,268.944 2265.521,282.138 "/>
<line fill="none" stroke="#159BFF" stroke-width="5" stroke-linejoin="bevel" stroke-miterlimit="10" x1="2137" y1="368" x2="2266" y2="368"/>
<line fill="none" stroke="#D83FFF" stroke-width="5" stroke-linejoin="bevel" stroke-miterlimit="10" x1="2137" y1="424" x2="2266" y2="424"/>
<line fill="none" stroke="#E9A400" stroke-width="5" stroke-linejoin="bevel" stroke-miterlimit="10" x1="2137" y1="482" x2="2266" y2="482"/>
<line fill="none" stroke="#FF0000" stroke-width="5" stroke-linejoin="bevel" stroke-miterlimit="10" x1="2137" y1="541" x2="2266" y2="541"/>
<text transform="matrix(1 0 0 1 2292.999 373.4961)" font-family="'MyriadPro-Regular'" font-size="30">c(t)</text>
<text transform="matrix(1 0 0 1 2289.499 430.9961)" font-family="'MyriadPro-Regular'" font-size="30">s(t), </text>
<text transform="matrix(1 0 0 1 2340.918 430.9961)" font-family="'SymbolMT'" font-size="30">l</text>
<text transform="matrix(0.583 0 0 0.583 2357.3828 440.9863)" font-family="'SymbolMT'" font-size="30">2</text>
<text transform="matrix(1 0 0 1 2366.1279 430.9961)" font-family="'MyriadPro-Regular'" font-size="30">=20</text>
<text transform="matrix(1 0 0 1 2289.499 485.9961)" font-family="'MyriadPro-Regular'" font-size="30">s(t), </text>
<text transform="matrix(1 0 0 1 2340.918 485.9961)" font-family="'SymbolMT'" font-size="30">l</text>
<text transform="matrix(0.583 0 0 0.583 2357.3828 495.9863)" font-family="'SymbolMT'" font-size="30">2</text>
<text transform="matrix(1 0 0 1 2366.1279 485.9961)" font-family="'MyriadPro-Regular'" font-size="30">=200</text>
<text transform="matrix(1 0 0 1 2289.499 546.9961)" font-family="'MyriadPro-Regular'" font-size="30">s(t), </text>
<text transform="matrix(1 0 0 1 2340.918 546.9961)" font-family="'SymbolMT'" font-size="30">l</text>
<text transform="matrix(0.583 0 0 0.583 2357.3828 556.9863)" font-family="'SymbolMT'" font-size="30">2</text>
<text transform="matrix(1 0 0 1 2366.1279 546.9961)" font-family="'MyriadPro-Regular'" font-size="30">=2000</text>
</svg>
