<?xml version="1.0" encoding="utf-8"?>
<!-- Generator: Adobe Illustrator 16.0.3, SVG Export Plug-In . SVG Version: 6.00 Build 0)  -->
<!DOCTYPE svg PUBLIC "-//W3C//DTD SVG 1.1//EN" "http://www.w3.org/Graphics/SVG/1.1/DTD/svg11.dtd">
<svg version="1.1" id="Vrstva_1" xmlns="http://www.w3.org/2000/svg" xmlns:xlink="http://www.w3.org/1999/xlink" x="0px" y="0px"
	 width="980px" height="522px" viewBox="0 0 980 522" enable-background="new 0 0 980 522" xml:space="preserve">
<polyline fill="none" stroke="#159BFF" stroke-width="2" stroke-miterlimit="10" points="17.958,221.897 24.716,221.897 
	31.473,221.897 38.229,221.897 44.986,221.897 51.744,221.897 58.501,221.897 65.258,221.897 72.015,221.897 78.771,221.897 
	85.529,221.897 92.287,221.897 99.043,221.897 105.8,221.897 112.557,221.897 119.314,221.897 126.071,221.897 132.829,221.897 
	139.585,221.897 146.342,221.897 153.099,221.897 159.856,221.897 166.614,221.897 173.371,221.897 180.128,221.897 
	186.885,221.897 193.641,221.897 200.398,221.897 207.156,221.897 213.913,221.897 "/>
<g>
	<polyline fill="none" stroke="#EAAE21" stroke-width="3" stroke-linejoin="bevel" stroke-miterlimit="10" points="20.759,220.736 
		27.107,220.323 33.707,219.688 40.658,218.653 48.044,217.004 55.979,214.462 64.611,210.662 74.083,205.221 84.36,197.991 
		95.049,190.086 103.85,184.121 111.495,180.62 117.718,178.628 123.328,177.724 129.041,177.628 134.357,177.798 140.205,178.362 
		146.012,179.13 152.388,180.346 159.989,182.363 168.284,185.443 178.147,190.083 195.879,203.571 204.371,208.727 
		211.121,212.597 216.609,215.314 221.344,217.145 225.729,218.333 230.054,219.085 234.476,219.588 	"/>
	<path fill="none" stroke="#000000" stroke-linejoin="bevel" stroke-miterlimit="10" d="M213.911,72.798l-0.245-4.961l-0.731-4.912
		l-1.212-4.813l-1.679-4.667l-2.129-4.474l-2.56-4.235l-2.963-3.955l-3.338-3.634l-3.679-3.279l-3.983-2.89l-4.248-2.471
		l-4.47-2.031l-4.646-1.566l-4.778-1.087l-4.861-0.6l-4.895-0.103l-4.881,0.393l-4.819,0.885l-4.707,1.37l-4.549,1.839l-4.346,2.291
		l-4.099,2.72l-3.81,3.12l-3.484,3.491l-3.123,3.826l-2.731,4.125l-2.312,4.379l-1.868,4.591l-1.408,4.759l-0.932,4.877
		l-0.448,4.947l0.042,4.968l0.53,4.938l1.013,4.86l1.486,4.733l1.944,4.56l2.384,4.339l2.798,4.077l3.187,3.772l3.541,3.431
		l3.861,3.055l4.143,2.65l4.382,2.216l4.579,1.761l4.729,1.289l4.832,0.803l4.888,0.31l4.894-0.187l4.851-0.682l4.759-1.169
		l4.621-1.646l4.435-2.104l4.207-2.544l3.935-2.957l3.624-3.342l3.277-3.691l2.897-4.005l2.489-4.278l2.056-4.509l1.602-4.695
		l1.131-4.833l0.65-4.924 M360.876,221.897l-0.244-4.963l-0.732-4.911l-1.212-4.813l-1.679-4.667l-2.13-4.474l-2.559-4.235
		l-2.964-3.955l-3.338-3.635l-3.68-3.278l-3.982-2.889l-4.249-2.472l-4.469-2.03l-4.647-1.567l-4.778-1.088l-4.861-0.599
		l-4.895-0.104l-4.881,0.394l-4.819,0.885l-4.707,1.371l-4.549,1.84l-4.346,2.288l-4.097,2.721l-3.811,3.121l-3.484,3.49
		l-3.123,3.825l-2.73,4.125l-2.312,4.38l-1.869,4.59l-1.408,4.759l-0.933,4.877l-0.449,4.948l0.042,4.966l0.53,4.94l1.013,4.86
		l1.486,4.733l1.944,4.558l2.384,4.34l2.798,4.077l3.186,3.771l3.542,3.432l3.861,3.055l4.143,2.649l4.382,2.216l4.579,1.762
		l4.729,1.288l4.833,0.804l4.888,0.31l4.893-0.188l4.851-0.681l4.759-1.169l4.62-1.645l4.436-2.106l4.207-2.543l3.934-2.958
		l3.624-3.34l3.277-3.692l2.897-4.005l2.489-4.279l2.056-4.508l1.601-4.694l1.131-4.834l0.65-4.925"/>
</g>
<polyline fill="none" stroke="#159BFF" stroke-width="2" stroke-miterlimit="10" points="262.899,72.798 269.657,72.798 
	276.414,72.798 283.17,72.798 289.928,72.798 296.684,72.798 303.441,72.798 310.199,72.798 316.956,72.798 323.713,72.798 
	330.469,72.798 337.227,72.798 343.984,72.798 350.741,72.798 357.499,72.798 364.254,72.798 371.012,72.798 377.769,72.798 
	384.526,72.798 391.284,72.798 398.04,72.798 404.797,72.798 411.554,72.798 418.312,72.798 425.069,72.798 431.825,72.798 
	438.582,72.798 445.339,72.798 452.097,72.798 458.854,72.798 "/>
<polyline fill="none" stroke="#EC1E24" stroke-width="3" stroke-linejoin="bevel" stroke-miterlimit="10" points="242.319,74.344 
	246.737,74.835 251.056,75.578 255.435,76.767 260.168,78.612 265.662,81.37 272.429,85.314 280.958,90.587 298.95,104.392 
	308.42,109.101 317.091,112.296 324.289,114.278 330.678,115.523 336.911,116.408 342.432,116.898 348.17,117.221 353.571,117.015 
	359.593,116.306 365.84,114.332 373.126,110.659 382.262,104.897 392.598,96.777 402.834,89.527 412.273,84.071 420.881,80.258 
	428.799,77.708 436.174,76.054 443.119,75.016 449.713,74.378 456.059,73.962 "/>
<polyline fill="none" stroke="#159BFF" stroke-width="2" stroke-miterlimit="10" points="461.706,459.332 468.014,459.332 
	474.321,459.332 480.629,459.332 486.937,459.332 493.244,459.332 499.552,459.332 505.858,459.332 512.167,459.332 
	518.475,459.332 524.782,459.332 531.089,459.332 537.396,459.332 543.705,459.332 550.012,459.332 556.319,459.332 
	562.628,459.332 568.935,459.332 575.242,459.332 581.551,459.332 587.857,459.332 594.165,459.332 600.474,459.332 606.78,459.332 
	613.088,459.332 619.396,459.332 625.703,459.332 632.011,459.332 638.318,459.332 644.626,459.332 "/>
<polyline fill="none" stroke="#159BFF" stroke-width="2" stroke-miterlimit="10" points="690.358,326.5 696.666,326.5 
	702.974,326.5 709.281,326.5 715.589,326.5 721.897,326.5 728.204,326.5 734.512,326.5 740.819,326.5 747.127,326.5 753.435,326.5 
	759.743,326.5 766.05,326.5 772.356,326.5 778.665,326.5 784.973,326.5 791.28,326.5 797.588,326.5 803.896,326.5 810.203,326.5 
	816.511,326.5 822.818,326.5 829.126,326.5 835.434,326.5 841.741,326.5 848.049,326.5 854.356,326.5 860.664,326.5 866.972,326.5 
	873.279,326.5 "/>
<polyline fill="none" stroke="#EBAF22" stroke-width="3" stroke-linejoin="bevel" stroke-miterlimit="10" points="508.131,412.682 
	512.396,412.956 516.8,413.549 520.781,413.928 524.667,414.331 528.8,414.972 532.587,415.372 536.36,415.754 540.192,416.155 
	544.429,416.778 548.412,417.212 552.771,417.794 556.817,418.192 560.935,418.581 565.531,419.124 569.94,419.587 574.941,420.25 
	579.929,421.032 585.837,422.264 592.229,424.108 600.224,427.009 609.69,431.181 626.59,442.619 635.084,445.837 641.751,446.417 
	647.058,443.926 651.574,437.301 655.808,425.458 660.175,407.416 664.657,389.525 "/>
<polyline fill="none" stroke="#FF0000" stroke-width="3" stroke-linejoin="bevel" stroke-miterlimit="10" points="664.657,389.524 
	669.139,371.634 673.734,353.897 679.509,343.687 685.396,338.968 691.75,337.244 699.006,338.6 707.746,342.716 724.658,354.344 
	734.232,358.667 742.366,361.642 749.269,363.58 754.906,364.783 760.327,365.663 765.016,366.25 769.822,366.847 774.109,367.281 
	778.607,367.84 782.645,368.233 786.608,368.628 790.856,369.217 794.723,369.622 798.552,370.029 802.667,370.65 806.437,371.033 
	810.194,371.388 814.02,371.741 818.241,372.319 822.301,372.589 826.485,372.786 "/>
<path fill="none" stroke="#000000" stroke-linejoin="bevel" stroke-miterlimit="10" d="M644.628,326.5l-0.229-4.42l-0.684-4.376
	l-1.131-4.289l-1.567-4.158l-1.988-3.985l-2.39-3.773l-2.767-3.523l-3.116-3.239l-3.434-2.92l-3.719-2.575l-3.964-2.202
	l-4.173-1.808l-4.338-1.396l-4.46-0.969l-4.539-0.533l-4.569-0.092l-4.558,0.351l-4.498,0.789l-4.394,1.219l-4.246,1.639
	l-4.056,2.041l-3.826,2.422l-3.557,2.781l-3.253,3.11l-2.915,3.409l-2.549,3.674l-2.157,3.902l-1.745,4.091l-1.314,4.239
	l-0.87,4.345l-0.418,4.407l0.038,4.426l0.494,4.399l0.946,4.33l1.388,4.217l1.815,4.062l2.226,3.866l2.612,3.632l2.974,3.361
	l3.307,3.057l3.604,2.722l3.867,2.36l4.091,1.974l4.274,1.569l4.414,1.147l4.511,0.716l4.563,0.276l4.566-0.167l4.528-0.607
	l4.443-1.042l4.313-1.466l4.141-1.875l3.927-2.266l3.673-2.635l3.383-2.977l3.059-3.289l2.705-3.568l2.323-3.812l1.919-4.018
	l1.496-4.182l1.056-4.306l0.606-4.387 M781.819,459.332l-0.229-4.419l-0.684-4.377l-1.13-4.288l-1.567-4.158l-1.988-3.985
	l-2.39-3.773l-2.767-3.524l-3.116-3.238l-3.435-2.921l-3.717-2.575l-3.966-2.202l-4.173-1.808l-4.337-1.396l-4.461-0.969
	l-4.537-0.533l-4.57-0.092l-4.557,0.351l-4.498,0.789l-4.395,1.22l-4.246,1.638l-4.057,2.041l-3.825,2.423l-3.558,2.78l-3.251,3.11
	l-2.916,3.409l-2.549,3.674l-2.158,3.902L693,444.5l-1.313,4.239l-0.871,4.345l-0.419,4.407l0.039,4.425l0.495,4.401l0.945,4.33
	l1.388,4.217l1.815,4.062l2.225,3.867l2.613,3.632l2.975,3.36l3.305,3.057l3.605,2.721l3.866,2.36l4.091,1.975l4.275,1.569
	l4.414,1.148l4.512,0.715l4.562,0.276l4.568-0.167l4.528-0.606l4.442-1.042l4.313-1.466l4.141-1.875l3.926-2.268l3.674-2.634
	l3.382-2.977l3.06-3.289l2.705-3.567l2.323-3.812l1.92-4.017l1.493-4.183l1.057-4.306l0.608-4.386"/>
<polyline fill="none" stroke="#159BFF" stroke-width="2" stroke-miterlimit="10" points="10,470.768 16.918,470.768 23.836,470.768 
	30.754,470.768 37.672,470.768 44.59,470.768 51.508,470.768 58.427,470.768 65.345,470.768 72.262,470.768 79.181,470.768 
	86.099,470.768 93.017,470.768 99.936,470.768 106.853,470.768 113.771,470.768 120.689,470.768 127.607,470.768 134.525,470.768 
	141.443,470.768 148.361,470.768 155.28,470.768 162.198,470.768 169.115,470.768 176.033,470.768 182.952,470.768 189.869,470.768 
	196.788,470.768 203.706,470.768 210.624,470.768 "/>
<polyline fill="none" stroke="#159BFF" stroke-width="2" stroke-miterlimit="10" points="260.778,333.117 267.697,333.117 
	274.615,333.117 281.532,333.117 288.45,333.117 295.369,333.117 302.287,333.117 309.205,333.117 316.122,333.117 323.041,333.117 
	329.959,333.117 336.877,333.117 343.795,333.117 350.713,333.117 357.63,333.117 364.548,333.117 371.466,333.117 378.385,333.117 
	385.302,333.117 392.22,333.117 399.139,333.117 406.056,333.117 412.974,333.117 419.893,333.117 426.811,333.117 433.729,333.117 
	440.648,333.117 447.564,333.117 454.482,333.117 461.4,333.117 "/>
<polyline fill="none" stroke="#EBAF22" stroke-width="3" stroke-linejoin="bevel" stroke-miterlimit="10" points="60.917,422.423 
	65.596,422.709 70.425,423.324 74.792,423.715 79.054,424.132 83.587,424.797 87.74,425.211 91.878,425.608 96.082,426.024 
	100.728,426.669 105.097,427.12 109.876,427.723 114.315,428.134 118.831,428.538 123.872,429.1 128.708,429.579 134.191,430.264 
	139.661,431.07 146.138,432.342 153.144,434.244 161.905,437.231 172.273,441.524 190.787,453.331 200.068,456.601 207.336,457.139 
	213.126,454.564 218.136,447.979 223.134,436.809 228.904,421.678 232.366,398.725 "/>
<polyline fill="none" stroke="#EC1E24" stroke-width="3" stroke-linejoin="bevel" stroke-miterlimit="10" points="232.367,398.725 
	235.83,375.771 242.18,360.514 248.927,350.957 255.47,346.312 262.422,344.512 270.346,345.846 279.901,350.042 298.429,362.042 
	308.917,366.491 317.83,369.554 325.396,371.553 331.578,372.793 337.521,373.703 342.662,374.31 347.934,374.927 352.635,375.377 
	357.568,375.956 361.997,376.364 366.344,376.773 371.004,377.382 375.244,377.802 379.444,378.224 383.956,378.868 388.09,379.264 
	392.212,379.632 396.407,379.998 401.038,380.596 405.49,380.877 410.08,381.081 "/>
<path fill="none" stroke="#000000" stroke-linejoin="bevel" stroke-miterlimit="10" d="M210.624,333.117l-0.25-4.581l-0.75-4.535
	l-1.24-4.444l-1.719-4.309l-2.18-4.13l-2.621-3.91l-3.035-3.651l-3.417-3.356l-3.767-3.028l-4.078-2.668l-4.349-2.282l-4.576-1.873
	l-4.758-1.446l-4.892-1.004l-4.977-0.553l-5.012-0.096l-4.998,0.363l-4.933,0.818l-4.819,1.264l-4.657,1.697l-4.449,2.115
	l-4.196,2.51l-3.901,2.881l-3.567,3.223l-3.197,3.533l-2.796,3.807l-2.366,4.042l-1.914,4.24l-1.441,4.393l-0.955,4.502
	l-0.458,4.567l0.042,4.586l0.542,4.56l1.038,4.487l1.522,4.37l1.991,4.209l2.44,4.007l2.866,3.763l3.262,3.483l3.626,3.168
	l3.954,2.82l4.241,2.445l4.487,2.046l4.688,1.625l4.842,1.19l4.947,0.741l5.004,0.286l5.01-0.172l4.966-0.629l4.873-1.08l4.73-1.519
	l4.541-1.944l4.306-2.349l4.029-2.73l3.71-3.084l3.355-3.409l2.967-3.697l2.547-3.949l2.105-4.164l1.639-4.334l1.159-4.462
	l0.666-4.546 M361.09,470.768l-0.25-4.581l-0.75-4.535l-1.24-4.445l-1.719-4.309l-2.181-4.129l-2.621-3.911l-3.034-3.651
	l-3.417-3.356l-3.766-3.027l-4.079-2.667l-4.347-2.282l-4.576-1.874l-4.758-1.446l-4.892-1.005l-4.977-0.552l-5.012-0.096
	l-4.998,0.363l-4.933,0.818l-4.819,1.264l-4.657,1.698l-4.449,2.115l-4.195,2.51l-3.901,2.88l-3.567,3.223l-3.197,3.533
	l-2.797,3.807l-2.366,4.043l-1.914,4.239l-1.441,4.394l-0.954,4.502l-0.458,4.567l0.042,4.586l0.542,4.561l1.037,4.486l1.522,4.371
	l1.991,4.208l2.44,4.006l2.866,3.764l3.262,3.483l3.625,3.168l3.953,2.82l4.241,2.446l4.488,2.046l4.687,1.626l4.842,1.189
	l4.947,0.742l5.004,0.286l5.01-0.172l4.965-0.629l4.873-1.079l4.73-1.519l4.541-1.944l4.306-2.349l4.028-2.73l3.71-3.084
	l3.355-3.409l2.966-3.697l2.548-3.949l2.104-4.165l1.64-4.333l1.158-4.462l0.666-4.546"/>
<polyline fill="none" stroke="#159BFF" stroke-width="2" stroke-miterlimit="10" points="470.999,191.26 477.043,191.26 
	483.09,191.26 489.135,191.26 495.18,191.26 501.226,191.26 507.271,191.26 513.316,191.26 519.362,191.26 525.407,191.26 
	531.454,191.26 537.498,191.26 543.545,191.26 549.589,191.26 555.635,191.26 561.681,191.26 567.727,191.26 573.772,191.26 
	579.817,191.26 585.861,191.26 591.909,191.26 597.954,191.26 603.999,191.26 610.045,191.26 616.089,191.26 622.136,191.26 
	628.181,191.26 634.227,191.26 640.272,191.26 646.317,191.26 "/>
<polyline fill="none" stroke="#159BFF" stroke-width="2" stroke-miterlimit="10" points="690.14,62.132 696.186,62.132 
	702.231,62.132 708.276,62.132 714.322,62.132 720.369,62.132 726.413,62.132 732.459,62.132 738.505,62.132 744.55,62.132 
	750.596,62.132 756.641,62.132 762.686,62.132 768.732,62.132 774.777,62.132 780.823,62.132 786.868,62.132 792.912,62.132 
	798.959,62.132 805.003,62.132 811.051,62.132 817.096,62.132 823.14,62.132 829.187,62.132 835.23,62.132 841.277,62.132 
	847.323,62.132 853.368,62.132 859.413,62.132 865.458,62.132 "/>
<polyline fill="none" stroke="#EBAF21" stroke-width="3" stroke-linejoin="bevel" stroke-miterlimit="10" points="492.439,168.706 
	501.878,163.938 512.145,158.159 520.755,153.908 527.595,151.349 533.143,150.045 537.883,149.535 542.169,149.488 
	546.228,149.693 550.191,150.026 554.136,150.418 558.105,150.837 562.134,151.264 566.247,151.697 570.484,152.149 
	574.909,152.652 579.609,153.275 584.746,154.142 590.551,155.475 597.371,157.623 605.627,161.053 615.623,166.166 
	626.875,172.549 636.145,176.81 643.253,178.105 648.778,176.104 653.288,170.251 657.097,159.6 660.256,143.11 662.748,120.977 "/>
<polyline fill="none" stroke="#EC1E24" stroke-width="3" stroke-linejoin="bevel" stroke-miterlimit="10" points="662.748,120.977 
	669.368,102.814 675.464,89.207 681.08,80.43 686.61,75.73 692.679,74.414 700.056,76.106 709.456,80.593 720.765,87.102 
	730.785,92.279 739.054,95.742 745.884,97.905 751.699,99.247 756.841,100.118 761.548,100.743 765.976,101.25 770.223,101.705 
	774.344,102.142 778.374,102.571 782.346,102.991 786.288,103.383 790.249,103.715 794.305,103.919 798.593,103.874 
	803.335,103.366 808.881,102.063 815.72,99.505 824.328,95.251 834.592,89.471 844.028,84.7 "/>
<path fill="none" stroke="#000000" stroke-linejoin="bevel" stroke-miterlimit="10" d="M646.313,62.132l-0.001-0.135v-0.136v-0.135
	l-0.004-0.135l-0.001-0.136l-0.002-0.135l-0.004-0.135l-0.002-0.136l-0.004-0.135l-0.004-0.135l-0.005-0.135l-0.006-0.135
	l-0.005-0.135l-0.007-0.136l-0.005-0.135l-0.007-0.135l-0.007-0.135l-0.009-0.136l-0.008-0.135l-0.01-0.134l-0.007-0.136
	l-0.01-0.135l-0.009-0.135l-0.011-0.134l-0.01-0.135l-0.013-0.134l-0.011-0.135l-0.012-0.135l-0.012-0.135l-0.015-0.134
	l-0.011-0.135l-0.015-0.135l-0.015-0.134l-0.015-0.135l-0.013-0.134l-0.018-0.135l-0.016-0.134l-0.016-0.134l-0.018-0.135
	l-0.017-0.134l-0.018-0.134l-0.017-0.134l-0.021-0.133l-0.017-0.135l-0.02-0.134l-0.021-0.133l-0.019-0.134l-0.022-0.134
	l-0.02-0.133l-0.021-0.134l-0.022-0.133l-0.021-0.134l-0.023-0.133l-0.022-0.133l-0.023-0.134l-0.023-0.133l-0.024-0.133
	l-0.025-0.132l-0.024-0.134l-0.027-0.133l-0.024-0.132l-0.026-0.133l-0.027-0.133l-0.029-0.133l-0.025-0.131l-0.029-0.132
	l-0.029-0.134l-0.028-0.132l-0.028-0.132l-0.03-0.132l-0.029-0.131l-0.032-0.133l-0.031-0.132l-0.03-0.132l-0.033-0.131l-0.03-0.132
	l-0.034-0.132l-0.034-0.13l-0.033-0.132l-0.034-0.131l-0.032-0.131l-0.036-0.131l-0.035-0.131l-0.035-0.131l-0.037-0.129
	l-0.035-0.131l-0.039-0.13l-0.037-0.131l-0.037-0.129l-0.04-0.131l-0.038-0.129l-0.038-0.13l-0.04-0.129l-0.04-0.131l-0.04-0.129
	l-0.04-0.129l-0.042-0.127l-0.043-0.129l-0.041-0.13l-0.039-0.128l-0.046-0.129l-0.042-0.13l-0.045-0.128l-0.042-0.128l-0.045-0.127
	l-0.045-0.127l-0.046-0.129l-0.045-0.127l-0.047-0.127l-0.047-0.127l-0.047-0.127l-0.047-0.127l-0.046-0.127l-0.051-0.126
	l-0.048-0.126l-0.049-0.126l-0.049-0.126l-0.05-0.126l-0.052-0.126l-0.049-0.126l-0.053-0.126l-0.05-0.125l-0.052-0.125
	l-0.054-0.126l-0.052-0.125l-0.053-0.125l-0.054-0.125l-0.054-0.125l-0.054-0.125l-0.055-0.125l-0.056-0.124l-0.055-0.123
	l-0.055-0.125l-0.058-0.124l-0.055-0.124l-0.059-0.124l-0.057-0.123l-0.058-0.123l-0.058-0.123l-0.06-0.123l-0.059-0.122
	l-0.058-0.123l-0.062-0.122l-0.061-0.121l-0.058-0.122l-0.062-0.122l-0.063-0.121l-0.061-0.121l-0.063-0.12l-0.063-0.121
	l-0.063-0.12l-0.063-0.121l-0.062-0.12l-0.064-0.12l-0.064-0.119l-0.065-0.12l-0.065-0.12l-0.064-0.118l-0.066-0.119l-0.067-0.119
	l-0.066-0.118l-0.067-0.119l-0.066-0.118l-0.067-0.117l-0.068-0.118l-0.068-0.118l-0.07-0.117l-0.067-0.116l-0.07-0.117l-0.07-0.116
	l-0.068-0.117l-0.072-0.117l-0.071-0.115l-0.071-0.116l-0.072-0.115l-0.073-0.115l-0.071-0.116l-0.072-0.114l-0.073-0.115
	l-0.072-0.114l-0.076-0.114l-0.073-0.115l-0.075-0.113l-0.074-0.114l-0.076-0.114l-0.076-0.113l-0.077-0.113l-0.076-0.112
	l-0.075-0.112l-0.078-0.112l-0.077-0.111l-0.079-0.111l-0.078-0.111l-0.078-0.111l-0.078-0.11l-0.081-0.111l-0.079-0.11l-0.08-0.11
	l-0.082-0.11l-0.08-0.109l-0.082-0.108l-0.079-0.109l-0.083-0.109l-0.083-0.108l-0.081-0.109l-0.084-0.107l-0.083-0.108
	l-0.083-0.107l-0.085-0.107l-0.085-0.106l-0.084-0.107l-0.084-0.105l-0.086-0.106l-0.085-0.106l-0.085-0.106l-0.087-0.105
	l-0.088-0.104l-0.087-0.105l-0.086-0.104l-0.089-0.104l-0.089-0.104l-0.087-0.104l-0.09-0.103l-0.089-0.104l-0.089-0.103
	l-0.09-0.104l-0.089-0.103l-0.091-0.102l-0.091-0.102l-0.092-0.102l-0.091-0.102l-0.091-0.102l-0.093-0.1l-0.093-0.101l-0.092-0.1
	l-0.093-0.101l-0.094-0.1l-0.094-0.099l-0.093-0.099l-0.095-0.099l-0.095-0.099l-0.096-0.098l-0.096-0.098l-0.094-0.098
	l-0.096-0.097l-0.096-0.097l-0.098-0.097l-0.098-0.097l-0.096-0.096l-0.097-0.096l-0.098-0.095l-0.098-0.095l-0.099-0.095
	l-0.099-0.094l-0.1-0.094l-0.099-0.095l-0.101-0.093l-0.099-0.093l-0.099-0.093l-0.102-0.093l-0.101-0.092l-0.102-0.091
	l-0.101-0.092l-0.101-0.092l-0.102-0.092l-0.104-0.091l-0.1-0.09l-0.104-0.091l-0.103-0.09l-0.104-0.089l-0.102-0.089l-0.104-0.089
	l-0.104-0.089l-0.104-0.088l-0.105-0.089l-0.105-0.088l-0.104-0.086l-0.105-0.087l-0.106-0.087l-0.106-0.087l-0.107-0.085
	l-0.105-0.086l-0.107-0.086l-0.105-0.085l-0.107-0.084l-0.109-0.084l-0.107-0.083l-0.107-0.084l-0.109-0.084l-0.109-0.083
	l-0.107-0.083l-0.111-0.082l-0.108-0.083l-0.111-0.082l-0.108-0.081l-0.11-0.081l-0.109-0.081l-0.112-0.081l-0.11-0.08l-0.111-0.08
	l-0.112-0.079l-0.113-0.079l-0.109-0.078l-0.112-0.079l-0.114-0.078l-0.113-0.077l-0.113-0.078l-0.111-0.077l-0.114-0.076
	l-0.114-0.077l-0.113-0.075l-0.114-0.076l-0.115-0.076l-0.114-0.074l-0.116-0.074l-0.114-0.074l-0.115-0.074l-0.117-0.073
	l-0.115-0.073l-0.116-0.073l-0.116-0.073l-0.117-0.071l-0.117-0.072l-0.116-0.071l-0.12-0.07l-0.115-0.07l-0.118-0.071l-0.117-0.07
	l-0.119-0.069l-0.119-0.07l-0.118-0.068l-0.118-0.069l-0.12-0.068l-0.12-0.067l-0.119-0.067l-0.12-0.066l-0.118-0.066l-0.121-0.066
	l-0.12-0.065l-0.12-0.065l-0.121-0.065l-0.123-0.064l-0.118-0.064l-0.124-0.064l-0.121-0.064l-0.123-0.063l-0.12-0.063l-0.122-0.061
	l-0.125-0.063l-0.121-0.062l-0.122-0.061l-0.125-0.061l-0.123-0.061l-0.122-0.06l-0.125-0.06l-0.122-0.06l-0.125-0.059l-0.124-0.059
	l-0.126-0.058l-0.123-0.058l-0.125-0.058l-0.127-0.057l-0.123-0.057l-0.126-0.056l-0.125-0.056l-0.125-0.055l-0.127-0.055
	l-0.127-0.056l-0.124-0.053l-0.127-0.054l-0.126-0.054l-0.127-0.053l-0.128-0.052l-0.127-0.053l-0.127-0.052l-0.128-0.052
	l-0.128-0.051l-0.127-0.05l-0.128-0.051l-0.128-0.05l-0.128-0.049l-0.129-0.05l-0.127-0.048l-0.131-0.049l-0.129-0.047l-0.128-0.048
	l-0.131-0.047l-0.128-0.046l-0.129-0.047l-0.13-0.045l-0.13-0.046l-0.13-0.045l-0.13-0.044l-0.131-0.044l-0.129-0.044l-0.131-0.044
	l-0.131-0.043l-0.131-0.042l-0.131-0.042l-0.132-0.042l-0.129-0.042l-0.133-0.042l-0.131-0.041l-0.131-0.041l-0.133-0.039
	l-0.13-0.04l-0.133-0.039l-0.132-0.04l-0.133-0.038l-0.133-0.038l-0.132-0.038l-0.132-0.037l-0.135-0.037l-0.13-0.036l-0.134-0.036
	l-0.133-0.036l-0.133-0.034l-0.134-0.035l-0.134-0.035l-0.133-0.034l-0.134-0.033l-0.133-0.034l-0.134-0.031l-0.135-0.034
	l-0.134-0.031l-0.134-0.031l-0.135-0.031l-0.133-0.031l-0.136-0.03l-0.133-0.03l-0.134-0.029l-0.137-0.029l-0.133-0.028
	l-0.137-0.027l-0.134-0.028l-0.136-0.027l-0.136-0.026l-0.134-0.027l-0.137-0.025l-0.135-0.026l-0.135-0.025l-0.137-0.025
	l-0.135-0.024l-0.135-0.023l-0.136-0.023l-0.136-0.023l-0.136-0.023l-0.136-0.022l-0.138-0.022l-0.135-0.021l-0.137-0.021
	l-0.136-0.021l-0.137-0.02l-0.137-0.02l-0.136-0.019l-0.136-0.019l-0.136-0.019l-0.138-0.018l-0.136-0.017l-0.138-0.018
	l-0.137-0.016l-0.137-0.016l-0.139-0.016l-0.135-0.016l-0.137-0.015l-0.137-0.014l-0.139-0.014l-0.135-0.013l-0.139-0.014
	l-0.138-0.013l-0.135-0.012l-0.139-0.012l-0.138-0.012l-0.136-0.01l-0.139-0.011l-0.137-0.011l-0.136-0.009l-0.139-0.01
	l-0.139-0.009l-0.136-0.009l-0.14-0.009l-0.137-0.007l-0.138-0.007l-0.138-0.007l-0.138-0.006l-0.138-0.006l-0.137-0.005
	l-0.139-0.006l-0.137-0.005l-0.137-0.004l-0.139-0.004l-0.138-0.003l-0.138-0.003l-0.138-0.003l-0.138-0.002l-0.139-0.002
	l-0.138-0.001l-0.138,0l-0.138-0.001h-0.139l-0.138,0l-0.138,0l-0.138,0.002l-0.138,0.001l-0.138,0.002l-0.138,0.002l-0.14,0.002
	l-0.137,0.003l-0.137,0.004l-0.139,0.003l-0.137,0.005l-0.139,0.005l-0.139,0.006l-0.136,0.005l-0.138,0.006l-0.138,0.007
	l-0.136,0.006l-0.139,0.008l-0.139,0.008l-0.136,0.008l-0.139,0.008l-0.137,0.009l-0.139,0.01l-0.136,0.01l-0.138,0.012l-0.138,0.01
	l-0.139,0.011l-0.135,0.012l-0.139,0.012l-0.138,0.013l-0.138,0.013l-0.136,0.013l-0.137,0.013l-0.138,0.015l-0.137,0.015
	l-0.137,0.015l-0.138,0.016l-0.136,0.015l-0.137,0.017l-0.138,0.017l-0.136,0.017l-0.136,0.018l-0.139,0.018l-0.135,0.019
	l-0.137,0.019l-0.138,0.02l-0.136,0.02l-0.136,0.021l-0.137,0.021l-0.137,0.021l-0.134,0.021l-0.137,0.021l-0.138,0.023
	l-0.135,0.023l-0.136,0.023l-0.135,0.023l-0.137,0.024l-0.135,0.024l-0.136,0.025l-0.135,0.025l-0.136,0.026l-0.135,0.025
	l-0.137,0.026l-0.135,0.028l-0.135,0.027l-0.136,0.028l-0.133,0.029l-0.136,0.028l-0.134,0.028l-0.135,0.031l-0.135,0.029
	l-0.134,0.03l-0.134,0.031l-0.135,0.031l-0.135,0.032l-0.133,0.032l-0.134,0.032l-0.132,0.033l-0.135,0.034l-0.135,0.034
	l-0.133,0.033l-0.133,0.034l-0.134,0.035l-0.132,0.035l-0.134,0.036l-0.134,0.036l-0.131,0.036l-0.133,0.037l-0.134,0.037
	l-0.132,0.038l-0.133,0.038l-0.131,0.039l-0.132,0.04l-0.132,0.039l-0.132,0.04l-0.132,0.041l-0.13,0.04l-0.134,0.042l-0.129,0.04
	l-0.133,0.042l-0.13,0.042l-0.132,0.042l-0.13,0.044l-0.129,0.043l-0.132,0.044l-0.131,0.044l-0.13,0.044l-0.13,0.044l-0.13,0.045
	l-0.129,0.046l-0.131,0.046l-0.129,0.046l-0.129,0.048l-0.129,0.047l-0.129,0.047l-0.13,0.049l-0.128,0.048l-0.128,0.049
	l-0.129,0.049l-0.127,0.05l-0.128,0.05l-0.129,0.052l-0.128,0.05l-0.127,0.051l-0.127,0.052l-0.128,0.053l-0.126,0.052l-0.127,0.053
	l-0.127,0.054l-0.127,0.053l-0.126,0.055l-0.126,0.054l-0.125,0.054l-0.125,0.056l-0.128,0.056l-0.125,0.056l-0.126,0.056
	l-0.123,0.057l-0.126,0.057l-0.125,0.058l-0.125,0.058l-0.123,0.059l-0.126,0.059l-0.122,0.06l-0.124,0.058l-0.124,0.06
	l-0.123,0.061l-0.123,0.061l-0.123,0.06l-0.123,0.062l-0.123,0.062l-0.122,0.062l-0.123,0.063l-0.119,0.063l-0.123,0.063
	l-0.122,0.064l-0.12,0.064l-0.122,0.064l-0.122,0.065l-0.119,0.065l-0.121,0.065l-0.12,0.066l-0.121,0.066l-0.118,0.066l-0.12,0.068
	l-0.12,0.067l-0.119,0.068l-0.119,0.068l-0.118,0.068l-0.119,0.069l-0.118,0.069l-0.119,0.07l-0.117,0.07l-0.118,0.07l-0.117,0.07
	l-0.118,0.071l-0.116,0.071l-0.116,0.073l-0.116,0.071l-0.118,0.072l-0.115,0.073l-0.116,0.073l-0.116,0.073l-0.115,0.074
	l-0.115,0.074l-0.113,0.075l-0.116,0.075l-0.115,0.075l-0.112,0.075l-0.114,0.077l-0.114,0.076l-0.114,0.077l-0.11,0.078
	l-0.115,0.077l-0.113,0.078l-0.111,0.078l-0.113,0.079l-0.111,0.079l-0.111,0.079l-0.111,0.081l-0.111,0.08l-0.111,0.08l-0.11,0.08
	l-0.111,0.081l-0.109,0.081l-0.11,0.082l-0.108,0.082l-0.11,0.082l-0.11,0.083l-0.107,0.083l-0.108,0.083l-0.109,0.083l-0.107,0.084
	l-0.107,0.084l-0.108,0.085l-0.107,0.084l-0.107,0.085l-0.106,0.086l-0.107,0.086l-0.105,0.086l-0.106,0.086l-0.105,0.086
	l-0.104,0.087l-0.106,0.088l-0.104,0.087l-0.105,0.088l-0.104,0.089l-0.104,0.089l-0.103,0.089l-0.104,0.089l-0.104,0.09
	l-0.102,0.09l-0.104,0.09l-0.102,0.09l-0.101,0.092l-0.103,0.09l-0.102,0.092l-0.102,0.092l-0.1,0.092l-0.101,0.092l-0.102,0.093
	l-0.1,0.093l-0.101,0.094l-0.099,0.094l-0.099,0.094l-0.099,0.094l-0.099,0.095l-0.099,0.095l-0.096,0.095l-0.1,0.096l-0.096,0.096
	l-0.098,0.097l-0.097,0.096l-0.095,0.097l-0.097,0.097l-0.095,0.097l-0.097,0.099l-0.096,0.097l-0.095,0.098l-0.093,0.099
	l-0.093,0.099l-0.095,0.1l-0.096,0.098l-0.092,0.101l-0.093,0.1l-0.093,0.1l-0.092,0.1l-0.091,0.101l-0.091,0.102l-0.092,0.101
	l-0.092,0.103l-0.089,0.101l-0.091,0.103l-0.09,0.103l-0.091,0.103l-0.089,0.103l-0.089,0.104l-0.09,0.103l-0.087,0.105
	l-0.087,0.103l-0.089,0.105l-0.086,0.105l-0.088,0.105l-0.086,0.105l-0.088,0.105l-0.083,0.106l-0.087,0.106l-0.086,0.106
	l-0.083,0.106l-0.087,0.107l-0.082,0.108l-0.084,0.106l-0.083,0.108l-0.083,0.108l-0.084,0.108l-0.082,0.108l-0.082,0.109
	l-0.081,0.108l-0.082,0.11l-0.081,0.109l-0.081,0.11l-0.079,0.109l-0.082,0.11l-0.078,0.11l-0.079,0.111l-0.079,0.111l-0.078,0.112
	l-0.078,0.111l-0.078,0.112l-0.076,0.111l-0.079,0.113l-0.076,0.112l-0.077,0.112l-0.076,0.113l-0.075,0.113l-0.076,0.114
	l-0.073,0.113l-0.075,0.114l-0.075,0.114l-0.072,0.114l-0.074,0.114l-0.071,0.115l-0.073,0.115l-0.074,0.115l-0.072,0.115
	l-0.07,0.117l-0.071,0.115l-0.07,0.116l-0.071,0.117l-0.069,0.115l-0.07,0.117l-0.069,0.117l-0.069,0.117l-0.069,0.117l-0.067,0.117
	l-0.067,0.118l-0.069,0.118l-0.066,0.119l-0.066,0.118l-0.067,0.119l-0.065,0.119l-0.064,0.118L563.85,41.8l-0.065,0.119
	l-0.064,0.121l-0.063,0.119l-0.064,0.12l-0.063,0.12l-0.063,0.121l-0.063,0.121l-0.062,0.121l-0.064,0.121l-0.06,0.121l-0.062,0.121
	l-0.061,0.122l-0.061,0.122l-0.062,0.121l-0.059,0.123l-0.058,0.122l-0.058,0.122l-0.06,0.123l-0.058,0.123l-0.058,0.123
	l-0.058,0.124l-0.057,0.123l-0.057,0.124l-0.057,0.124l-0.054,0.123l-0.056,0.125l-0.055,0.124l-0.055,0.124l-0.053,0.125
	l-0.055,0.125l-0.052,0.125l-0.055,0.125l-0.052,0.125l-0.051,0.126l-0.054,0.125l-0.05,0.125l-0.051,0.125l-0.051,0.125
	l-0.05,0.127l-0.049,0.126l-0.049,0.126l-0.049,0.127l-0.049,0.127l-0.049,0.126l-0.048,0.127l-0.046,0.128l-0.047,0.126
	l-0.048,0.128l-0.044,0.127l-0.045,0.129l-0.045,0.127l-0.045,0.127l-0.045,0.129l-0.044,0.128l-0.043,0.128l-0.043,0.127
	l-0.042,0.129l-0.044,0.128l-0.041,0.129l-0.041,0.129l-0.041,0.129l-0.042,0.129l-0.039,0.129l-0.039,0.129l-0.039,0.13
	l-0.039,0.131l-0.039,0.129l-0.038,0.13l-0.038,0.13l-0.036,0.13l-0.037,0.131l-0.036,0.131l-0.037,0.131l-0.035,0.13l-0.035,0.131
	l-0.033,0.131l-0.035,0.131l-0.033,0.131l-0.034,0.132l-0.032,0.131l-0.034,0.13l-0.031,0.131l-0.033,0.132l-0.029,0.132
	l-0.031,0.131l-0.03,0.133l-0.03,0.132l-0.03,0.132l-0.028,0.132l-0.028,0.132l-0.03,0.132l-0.026,0.132l-0.027,0.132l-0.028,0.133
	l-0.027,0.133l-0.025,0.133l-0.025,0.133l-0.025,0.133l-0.025,0.133l-0.024,0.133l-0.024,0.133l-0.023,0.133l-0.022,0.133
	l-0.025,0.134l-0.02,0.134l-0.023,0.133l-0.021,0.134l-0.021,0.134l-0.021,0.133l-0.021,0.135l-0.019,0.133l-0.021,0.133
	l-0.019,0.135l-0.019,0.134l-0.018,0.134l-0.019,0.135l-0.017,0.133l-0.017,0.134l-0.017,0.134l-0.017,0.135l-0.017,0.135
	l-0.014,0.134l-0.014,0.135l-0.016,0.135l-0.014,0.135l-0.013,0.135l-0.015,0.133l-0.013,0.136l-0.01,0.134l-0.012,0.135
	l-0.012,0.136l-0.011,0.134l-0.013,0.135l-0.009,0.136l-0.009,0.135l-0.009,0.135l-0.009,0.135l-0.008,0.135l-0.008,0.135
	l-0.009,0.135l-0.006,0.136l-0.006,0.134l-0.007,0.135l-0.006,0.135l-0.004,0.135l-0.006,0.135l-0.006,0.136l-0.005,0.135
	l-0.002,0.136l-0.003,0.135l-0.002,0.135l-0.002,0.136l-0.002,0.135l-0.001,0.135v0.136l-0.002,0.136v0.135l0.002,0.136v0.135
	l0.001,0.135l0.002,0.135l0.002,0.137l0.002,0.135l0.003,0.136l0.002,0.135l0.005,0.135l0.006,0.134l0.006,0.136l0.004,0.135
	l0.006,0.136l0.007,0.135l0.006,0.135l0.006,0.135l0.009,0.135l0.008,0.135l0.008,0.135l0.009,0.135l0.009,0.135l0.009,0.135
	l0.009,0.135l0.013,0.135l0.011,0.135l0.012,0.135l0.012,0.134l0.01,0.135l0.013,0.135l0.015,0.134l0.013,0.135l0.014,0.134
	l0.016,0.135l0.014,0.134l0.014,0.135l0.017,0.135l0.017,0.133l0.017,0.135l0.017,0.134l0.017,0.135l0.019,0.134l0.018,0.134
	l0.019,0.134l0.019,0.134l0.021,0.134l0.019,0.134l0.021,0.133l0.021,0.134l0.021,0.134l0.021,0.133l0.023,0.134l0.02,0.134
	l0.025,0.132l0.022,0.134l0.023,0.133l0.024,0.133l0.024,0.133l0.025,0.133l0.025,0.133l0.025,0.133l0.025,0.132l0.027,0.133
	l0.028,0.133l0.027,0.132l0.026,0.133l0.03,0.132l0.028,0.132l0.028,0.132l0.03,0.132l0.03,0.132l0.03,0.131l0.031,0.132
	l0.029,0.132l0.033,0.132l0.031,0.132l0.034,0.132l0.032,0.13l0.034,0.131l0.033,0.132l0.035,0.13l0.033,0.132l0.035,0.13
	l0.035,0.131l0.037,0.131l0.036,0.13l0.037,0.129l0.036,0.13l0.038,0.131l0.038,0.13l0.039,0.13l0.039,0.13l0.039,0.129l0.039,0.13
	l0.039,0.129l0.042,0.129l0.041,0.13l0.041,0.129l0.041,0.129l0.044,0.128l0.042,0.128l0.043,0.128l0.043,0.129l0.044,0.129
	l0.045,0.128l0.045,0.128l0.045,0.127l0.045,0.128l0.044,0.128l0.048,0.127l0.047,0.127l0.046,0.127l0.048,0.128l0.049,0.127
	l0.049,0.126l0.049,0.126l0.049,0.126l0.049,0.126l0.05,0.126l0.051,0.126l0.051,0.125l0.05,0.126l0.054,0.125l0.051,0.125
	l0.052,0.125l0.055,0.125l0.052,0.125l0.055,0.125l0.053,0.124l0.055,0.125l0.055,0.124l0.056,0.124l0.054,0.124l0.057,0.124
	l0.057,0.123l0.057,0.124l0.058,0.124l0.058,0.122l0.058,0.123l0.06,0.124l0.058,0.121l0.058,0.123l0.059,0.122l0.062,0.122
	l0.061,0.122l0.061,0.122l0.062,0.121l0.06,0.122l0.064,0.121l0.062,0.12l0.063,0.121l0.063,0.12l0.063,0.121l0.064,0.12l0.063,0.12
	l0.064,0.119l0.065,0.119l0.066,0.119l0.064,0.119l0.065,0.119l0.067,0.118l0.066,0.119l0.066,0.118l0.069,0.119l0.067,0.118
	l0.067,0.117l0.069,0.117l0.069,0.117l0.069,0.117l0.07,0.117l0.069,0.116l0.071,0.117l0.07,0.115l0.071,0.116l0.07,0.116
	l0.072,0.116l0.074,0.115l0.073,0.115l0.071,0.115l0.074,0.114l0.072,0.114l0.075,0.114l0.075,0.114l0.073,0.113l0.076,0.114
	l0.075,0.113l0.076,0.113l0.077,0.113l0.076,0.113l0.079,0.112l0.076,0.111l0.078,0.112l0.077,0.111l0.079,0.112l0.079,0.11
	l0.079,0.111l0.078,0.11l0.082,0.11l0.079,0.11l0.081,0.11l0.081,0.109l0.082,0.11l0.081,0.108l0.082,0.109l0.082,0.109l0.084,0.107
	l0.083,0.108l0.083,0.108l0.084,0.107l0.082,0.107l0.087,0.107l0.083,0.106l0.086,0.107l0.087,0.105l0.083,0.106l0.088,0.105
	l0.086,0.104l0.088,0.105l0.086,0.105l0.089,0.105l0.087,0.104l0.087,0.104l0.09,0.104l0.089,0.104l0.089,0.103l0.091,0.103
	l0.09,0.103l0.091,0.103l0.089,0.102l0.092,0.102l0.092,0.101l0.091,0.101l0.091,0.101l0.092,0.101l0.093,0.1l0.093,0.1l0.092,0.101
	l0.096,0.099l0.095,0.099l0.093,0.098l0.093,0.099l0.095,0.099l0.096,0.097l0.097,0.098l0.095,0.097l0.097,0.097l0.095,0.097
	l0.097,0.096l0.098,0.096l0.096,0.096l0.1,0.095l0.096,0.095l0.099,0.096l0.099,0.094l0.099,0.095l0.099,0.094l0.099,0.094
	l0.101,0.093l0.1,0.094l0.102,0.093l0.101,0.092l0.1,0.093l0.102,0.092l0.102,0.092l0.103,0.091l0.101,0.09l0.102,0.091l0.104,0.09
	l0.102,0.09l0.104,0.09l0.104,0.089l0.103,0.088l0.104,0.089l0.104,0.089l0.105,0.088l0.104,0.088l0.106,0.087l0.104,0.087
	l0.105,0.087l0.106,0.087l0.105,0.086l0.107,0.085l0.106,0.086l0.107,0.085l0.107,0.085l0.108,0.084l0.107,0.084l0.107,0.083
	l0.109,0.084l0.108,0.083l0.107,0.083l0.11,0.083l0.11,0.082l0.108,0.083l0.11,0.081l0.109,0.081l0.111,0.081l0.11,0.08l0.111,0.081
	l0.111,0.08l0.111,0.08l0.111,0.079l0.111,0.08l0.113,0.078l0.111,0.079l0.113,0.078l0.115,0.077l0.11,0.077l0.114,0.076
	l0.114,0.077l0.114,0.076l0.112,0.076l0.115,0.075l0.116,0.074l0.113,0.075l0.115,0.075l0.115,0.074l0.116,0.074l0.116,0.072
	l0.115,0.074l0.118,0.072l0.115,0.072l0.117,0.071l0.116,0.072l0.118,0.071l0.117,0.071l0.118,0.069l0.117,0.071l0.119,0.069
	l0.118,0.069l0.119,0.069l0.118,0.068l0.119,0.068l0.119,0.068l0.12,0.067l0.12,0.066l0.118,0.067l0.121,0.066l0.12,0.066
	l0.121,0.065l0.119,0.065l0.122,0.065l0.122,0.065l0.12,0.063l0.122,0.063l0.123,0.064l0.119,0.063l0.123,0.062l0.122,0.063
	l0.123,0.061l0.123,0.062l0.123,0.061l0.123,0.061l0.123,0.06l0.124,0.06l0.124,0.059l0.122,0.059l0.126,0.059l0.123,0.058
	l0.125,0.059l0.125,0.056l0.126,0.058l0.123,0.057l0.126,0.056l0.125,0.055l0.128,0.056l0.125,0.055l0.125,0.055l0.126,0.055
	l0.126,0.054l0.127,0.054l0.127,0.053l0.127,0.053l0.126,0.053l0.128,0.052l0.127,0.052l0.127,0.051l0.128,0.051l0.129,0.051
	l0.128,0.05l0.127,0.05l0.129,0.049l0.128,0.049l0.128,0.047l0.13,0.049l0.129,0.047l0.129,0.047l0.129,0.046l0.129,0.047
	l0.131,0.046l0.129,0.046l0.13,0.046l0.13,0.044l0.13,0.045l0.131,0.043l0.132,0.044l0.129,0.043l0.13,0.042l0.132,0.042l0.13,0.042
	l0.133,0.042l0.129,0.041l0.134,0.041l0.13,0.041l0.132,0.04l0.132,0.041l0.132,0.04l0.132,0.039l0.131,0.039l0.133,0.037
	l0.132,0.038l0.134,0.037l0.133,0.037l0.131,0.037l0.134,0.036l0.134,0.036l0.132,0.035l0.134,0.036l0.133,0.034l0.133,0.034
	l0.135,0.034l0.135,0.033l0.132,0.033l0.134,0.032l0.133,0.032l0.135,0.031l0.135,0.031l0.134,0.032l0.134,0.03l0.135,0.03
	l0.135,0.029l0.134,0.029l0.136,0.027l0.133,0.028l0.136,0.028l0.135,0.026l0.135,0.027l0.137,0.027l0.135,0.026l0.136,0.026
	l0.135,0.024l0.136,0.025l0.135,0.024l0.137,0.024l0.135,0.023l0.136,0.023l0.135,0.023l0.138,0.022l0.137,0.021l0.134,0.022
	l0.137,0.021l0.137,0.021l0.136,0.021l0.136,0.02l0.138,0.02l0.137,0.018l0.135,0.019l0.139,0.019l0.136,0.018l0.136,0.018
	l0.138,0.017l0.137,0.016l0.136,0.016l0.138,0.016l0.137,0.014l0.137,0.016l0.138,0.014l0.137,0.014l0.136,0.014l0.138,0.013
	l0.138,0.012l0.139,0.012l0.135,0.012l0.139,0.011l0.138,0.012l0.138,0.01l0.136,0.011l0.139,0.008l0.137,0.01l0.139,0.009
	l0.136,0.008l0.139,0.007l0.139,0.009l0.136,0.007l0.138,0.007l0.138,0.006l0.136,0.006l0.139,0.005l0.139,0.004l0.137,0.005
	l0.139,0.003l0.137,0.004l0.137,0.003l0.14,0.003l0.138,0.002l0.138,0.002l0.138,0.001l0.138,0.001l0.138,0.001h0.138h0.139
	l0.138-0.001l0.138,0l0.138-0.001l0.139-0.002l0.138-0.003l0.138-0.002l0.138-0.002l0.138-0.004l0.139-0.004l0.137-0.005
	l0.137-0.004l0.139-0.005l0.137-0.005l0.138-0.006l0.138-0.006l0.138-0.007l0.138-0.007l0.137-0.007l0.14-0.008l0.136-0.009
	l0.139-0.008l0.139-0.01l0.136-0.01l0.137-0.01l0.139-0.01l0.136-0.012l0.138-0.011l0.139-0.011l0.135-0.013l0.138-0.012
	l0.139-0.013l0.135-0.014l0.139-0.014l0.137-0.015l0.137-0.015l0.135-0.016l0.139-0.015l0.137-0.017l0.137-0.016l0.138-0.017
	l0.136-0.018l0.138-0.018l0.136-0.018l0.136-0.02l0.136-0.019l0.137-0.02l0.137-0.02l0.136-0.021l0.137-0.021l0.135-0.021
	l0.138-0.021l0.136-0.022l0.136-0.023l0.136-0.023l0.136-0.023l0.135-0.023l0.135-0.025l0.137-0.024l0.135-0.025l0.135-0.025
	l0.137-0.026l0.134-0.026l0.136-0.027l0.136-0.026l0.134-0.028l0.137-0.027l0.133-0.029l0.137-0.029l0.134-0.029l0.133-0.03
	l0.136-0.031l0.133-0.03l0.135-0.03l0.134-0.032l0.134-0.032l0.135-0.032l0.134-0.032l0.133-0.033l0.134-0.033l0.133-0.034
	l0.134-0.035l0.134-0.035l0.133-0.035l0.133-0.036l0.134-0.035l0.13-0.037l0.135-0.037l0.132-0.038l0.132-0.037l0.133-0.038
	l0.133-0.039l0.132-0.039l0.133-0.04l0.13-0.039l0.133-0.04l0.131-0.04l0.131-0.042l0.133-0.041l0.129-0.042l0.132-0.042
	l0.131-0.043l0.131-0.042l0.131-0.043l0.131-0.043l0.129-0.044l0.131-0.043l0.13-0.045l0.13-0.045l0.13-0.045l0.13-0.046
	l0.129-0.047l0.128-0.046l0.131-0.047l0.128-0.047l0.129-0.048l0.131-0.047l0.127-0.049l0.129-0.049l0.128-0.049l0.128-0.05
	l0.128-0.051l0.127-0.05l0.128-0.051l0.128-0.052l0.127-0.051l0.127-0.053l0.128-0.053l0.127-0.053l0.126-0.053l0.127-0.054
	l0.124-0.054l0.127-0.055l0.127-0.055l0.125-0.056l0.125-0.056l0.126-0.056l0.123-0.057l0.127-0.057l0.125-0.058l0.123-0.058
	l0.126-0.058l0.124-0.058l0.125-0.06l0.122-0.06l0.125-0.06l0.122-0.059l0.123-0.061l0.125-0.061l0.122-0.061l0.121-0.062
	l0.125-0.062l0.122-0.063l0.12-0.063l0.123-0.063l0.121-0.063l0.124-0.064l0.118-0.064l0.123-0.064l0.121-0.065l0.12-0.064
	l0.12-0.066l0.121-0.066l0.118-0.066l0.12-0.067l0.119-0.067l0.12-0.067l0.12-0.068l0.118-0.067l0.118-0.07l0.119-0.069l0.119-0.069
	l0.117-0.069l0.118-0.07l0.115-0.071l0.12-0.07l0.116-0.071l0.117-0.072l0.117-0.071l0.116-0.072l0.116-0.073l0.115-0.073
	l0.117-0.074l0.115-0.073l0.114-0.074l0.116-0.075l0.114-0.074l0.115-0.075l0.114-0.076l0.113-0.076l0.114-0.076l0.114-0.078
	l0.111-0.077l0.113-0.077l0.113-0.077l0.114-0.078l0.112-0.078l0.109-0.079l0.113-0.079l0.112-0.08l0.111-0.079l0.11-0.081
	l0.112-0.081l0.109-0.082l0.11-0.081l0.108-0.082l0.111-0.082l0.108-0.082l0.111-0.083l0.107-0.083l0.109-0.083l0.109-0.083
	l0.107-0.083l0.107-0.084l0.109-0.085l0.107-0.084l0.105-0.085l0.107-0.085l0.105-0.086l0.107-0.086l0.106-0.087l0.106-0.086
	l0.105-0.087l0.104-0.087l0.105-0.087l0.105-0.089l0.104-0.087l0.104-0.089l0.104-0.089l0.102-0.089l0.104-0.088l0.103-0.09
	l0.104-0.091l0.1-0.089l0.104-0.092l0.102-0.09l0.101-0.092l0.101-0.092l0.102-0.092l0.101-0.092l0.102-0.092l0.099-0.094
	l0.099-0.093l0.101-0.093l0.099-0.094l0.1-0.094l0.099-0.094l0.099-0.095l0.098-0.095l0.098-0.096l0.097-0.096l0.096-0.097
	l0.098-0.096l0.098-0.096l0.096-0.097l0.096-0.097l0.094-0.098l0.096-0.098l0.096-0.097l0.095-0.1l0.095-0.099l0.093-0.099
	l0.094-0.1l0.094-0.099l0.093-0.101l0.092-0.1l0.093-0.101l0.093-0.1l0.091-0.102l0.091-0.102l0.092-0.101l0.091-0.103l0.091-0.103
	l0.089-0.102l0.09-0.102l0.089-0.104l0.089-0.104l0.09-0.104l0.087-0.103l0.089-0.104l0.089-0.105l0.086-0.104l0.087-0.105
	l0.088-0.105l0.087-0.106l0.085-0.105l0.085-0.105l0.086-0.106l0.084-0.107l0.084-0.107l0.085-0.106l0.085-0.107l0.083-0.108
	l0.083-0.108l0.084-0.108l0.081-0.108l0.083-0.108l0.083-0.109l0.079-0.109l0.082-0.108l0.08-0.11l0.082-0.11l0.08-0.11l0.079-0.111
	l0.081-0.11l0.078-0.11l0.078-0.111l0.078-0.112l0.078-0.111l0.078-0.111l0.078-0.113l0.075-0.112l0.076-0.112l0.077-0.113
	l0.076-0.113l0.076-0.113l0.074-0.113l0.075-0.113l0.073-0.114l0.076-0.114l0.072-0.114l0.073-0.115l0.072-0.115l0.071-0.115
	l0.073-0.114l0.072-0.115l0.071-0.116l0.071-0.116l0.072-0.116l0.068-0.117l0.07-0.116l0.07-0.117l0.067-0.117l0.07-0.117
	l0.068-0.118l0.068-0.117l0.067-0.118l0.066-0.118l0.067-0.118l0.066-0.119l0.067-0.118l0.066-0.119l0.064-0.119l0.065-0.12
	l0.065-0.119l0.064-0.12l0.064-0.12l0.062-0.12l0.063-0.12l0.063-0.121l0.063-0.12l0.063-0.121l0.061-0.121l0.063-0.121l0.062-0.121
	l0.058-0.122l0.061-0.122l0.062-0.122l0.058-0.123l0.059-0.123l0.06-0.122l0.058-0.123l0.058-0.123l0.057-0.123l0.059-0.123
	l0.055-0.123l0.058-0.124l0.055-0.124l0.055-0.124l0.056-0.124l0.055-0.124l0.054-0.125l0.054-0.125l0.054-0.125l0.053-0.124
	l0.052-0.126l0.054-0.125l0.052-0.125l0.05-0.125l0.053-0.126l0.049-0.126l0.052-0.126l0.05-0.127l0.049-0.126l0.049-0.126
	l0.048-0.126l0.051-0.127l0.046-0.127l0.047-0.125l0.047-0.129l0.047-0.126l0.047-0.128l0.045-0.127l0.046-0.128l0.045-0.128
	l0.045-0.128l0.042-0.128l0.045-0.128l0.042-0.128l0.046-0.129l0.039-0.129l0.041-0.129l0.043-0.129l0.042-0.129l0.04-0.129
	l0.04-0.129l0.04-0.13l0.04-0.129l0.038-0.13l0.038-0.131l0.04-0.128l0.037-0.131l0.037-0.129l0.039-0.131l0.035-0.13l0.037-0.131
	l0.035-0.13l0.035-0.13l0.036-0.132l0.032-0.131l0.034-0.131l0.033-0.131l0.034-0.131l0.034-0.131l0.03-0.132l0.033-0.132
	l0.03-0.131l0.031-0.132l0.032-0.132l0.029-0.132l0.03-0.132l0.028-0.132l0.028-0.133l0.029-0.132l0.029-0.132l0.025-0.133
	l0.029-0.133l0.027-0.132l0.026-0.133l0.024-0.133l0.027-0.133l0.024-0.133l0.025-0.133l0.024-0.133l0.023-0.134l0.023-0.132
	l0.022-0.134l0.023-0.133l0.021-0.133l0.022-0.134l0.021-0.134l0.02-0.133l0.022-0.134l0.019-0.135l0.021-0.133l0.02-0.134
	l0.017-0.134l0.021-0.134l0.017-0.134l0.018-0.134l0.017-0.135l0.018-0.134l0.016-0.134l0.016-0.134l0.018-0.135l0.013-0.134
	l0.015-0.135l0.015-0.134l0.015-0.135l0.011-0.135l0.015-0.134l0.012-0.135l0.012-0.135l0.011-0.136l0.013-0.134l0.01-0.135
	l0.011-0.135l0.009-0.135l0.01-0.135l0.007-0.135l0.01-0.135l0.008-0.135l0.009-0.136l0.007-0.135l0.007-0.134l0.005-0.136
	l0.007-0.136l0.005-0.134l0.006-0.135l0.005-0.135l0.004-0.136l0.004-0.134l0.002-0.136l0.004-0.136l0.002-0.135l0.001-0.135
	l0.004-0.136v-0.135v-0.135l0.001-0.135 M777.797,191.26v-0.136v-0.135l-0.001-0.135l-0.002-0.135v-0.135l-0.004-0.136l-0.003-0.135
	l-0.004-0.136l-0.003-0.135l-0.004-0.135l-0.005-0.135l-0.005-0.136l-0.006-0.135l-0.005-0.134l-0.007-0.135l-0.008-0.135
	l-0.006-0.135l-0.008-0.135l-0.008-0.136l-0.009-0.135l-0.009-0.134l-0.01-0.135l-0.01-0.135l-0.009-0.135l-0.012-0.134
	l-0.011-0.135l-0.012-0.135l-0.012-0.134l-0.012-0.135l-0.014-0.135l-0.014-0.136l-0.014-0.133l-0.014-0.135l-0.014-0.134
	l-0.016-0.135l-0.014-0.135l-0.018-0.134l-0.017-0.135l-0.015-0.133l-0.019-0.135l-0.018-0.134l-0.017-0.135l-0.02-0.134
	l-0.02-0.133l-0.017-0.135l-0.021-0.133l-0.02-0.134l-0.021-0.134l-0.021-0.135l-0.021-0.133l-0.022-0.133l-0.021-0.135
	l-0.022-0.133l-0.023-0.132l-0.022-0.135l-0.024-0.133l-0.024-0.133l-0.025-0.133l-0.023-0.133l-0.028-0.133l-0.024-0.133
	l-0.025-0.132l-0.029-0.133l-0.028-0.132l-0.024-0.133l-0.03-0.132l-0.028-0.131l-0.028-0.133l-0.028-0.132l-0.032-0.132
	l-0.028-0.131l-0.031-0.132l-0.032-0.132l-0.031-0.131l-0.033-0.132l-0.03-0.131l-0.034-0.131l-0.032-0.132l-0.033-0.131
	l-0.035-0.131l-0.034-0.13l-0.034-0.13l-0.035-0.132l-0.035-0.13l-0.038-0.131l-0.036-0.13l-0.037-0.13l-0.036-0.13l-0.038-0.13
	l-0.039-0.129l-0.038-0.13l-0.039-0.13l-0.042-0.129l-0.037-0.129l-0.041-0.129l-0.039-0.13l-0.043-0.129l-0.04-0.129l-0.044-0.128
	l-0.041-0.129l-0.043-0.128l-0.044-0.129l-0.043-0.128l-0.043-0.128l-0.045-0.129l-0.045-0.127l-0.046-0.128l-0.046-0.128
	l-0.047-0.126l-0.046-0.128l-0.048-0.127l-0.046-0.126l-0.047-0.127l-0.051-0.127l-0.046-0.126l-0.05-0.127l-0.05-0.127l-0.05-0.125
	l-0.051-0.126l-0.05-0.126l-0.051-0.126l-0.052-0.125l-0.051-0.125l-0.053-0.126l-0.052-0.125l-0.053-0.125l-0.054-0.125
	l-0.056-0.125l-0.052-0.124l-0.057-0.125l-0.054-0.124l-0.056-0.124l-0.057-0.124l-0.056-0.124l-0.056-0.123l-0.057-0.123
	l-0.057-0.123l-0.059-0.124l-0.059-0.122l-0.06-0.123l-0.058-0.122l-0.06-0.122l-0.061-0.123l-0.06-0.122l-0.06-0.121l-0.06-0.123
	l-0.063-0.12l-0.063-0.122l-0.062-0.121l-0.062-0.121l-0.064-0.12l-0.062-0.12l-0.063-0.12l-0.064-0.12l-0.063-0.12l-0.066-0.119
	l-0.063-0.12l-0.067-0.119l-0.066-0.119l-0.066-0.118l-0.064-0.119l-0.068-0.119l-0.067-0.118l-0.067-0.118l-0.068-0.118
	l-0.067-0.117l-0.07-0.117l-0.069-0.116l-0.068-0.119l-0.07-0.117l-0.07-0.115l-0.07-0.117l-0.072-0.116l-0.07-0.115l-0.072-0.115
	l-0.074-0.117l-0.07-0.115l-0.073-0.114l-0.075-0.114l-0.071-0.115l-0.074-0.114l-0.075-0.114l-0.075-0.113l-0.075-0.114
	l-0.076-0.113l-0.075-0.114l-0.076-0.112l-0.076-0.113l-0.077-0.111l-0.075-0.113l-0.079-0.111l-0.077-0.11l-0.081-0.112
	l-0.075-0.111l-0.08-0.111l-0.08-0.11l-0.08-0.11l-0.079-0.11l-0.081-0.11l-0.08-0.109l-0.083-0.109l-0.08-0.108l-0.083-0.109
	l-0.082-0.109l-0.083-0.108l-0.083-0.107l-0.081-0.108l-0.085-0.107l-0.084-0.107l-0.085-0.106l-0.085-0.106l-0.085-0.107
	l-0.085-0.106l-0.085-0.106l-0.086-0.105l-0.087-0.105l-0.086-0.105l-0.089-0.105l-0.085-0.104l-0.089-0.105l-0.088-0.104
	l-0.088-0.104l-0.09-0.104l-0.088-0.102l-0.089-0.103l-0.089-0.104l-0.091-0.103l-0.091-0.102l-0.09-0.102l-0.093-0.102l-0.09-0.101
	l-0.093-0.102l-0.092-0.101l-0.094-0.101l-0.091-0.1l-0.093-0.1l-0.094-0.1l-0.093-0.1L766,161.882l-0.093-0.099l-0.094-0.098
	l-0.095-0.098l-0.096-0.098l-0.095-0.098l-0.097-0.098l-0.097-0.097l-0.098-0.096l-0.095-0.098l-0.097-0.095l-0.098-0.097
	l-0.099-0.095l-0.099-0.095l-0.097-0.095l-0.099-0.095l-0.1-0.093l-0.099-0.094l-0.1-0.094l-0.099-0.093l-0.1-0.092l-0.102-0.094
	l-0.101-0.092l-0.101-0.093l-0.102-0.09l-0.101-0.092l-0.103-0.091l-0.103-0.091l-0.102-0.091l-0.101-0.09l-0.104-0.09l-0.104-0.09
	l-0.104-0.088l-0.103-0.089l-0.105-0.088l-0.104-0.089l-0.104-0.088l-0.106-0.088l-0.104-0.087l-0.104-0.087l-0.105-0.086
	l-0.107-0.086l-0.106-0.086l-0.106-0.085l-0.106-0.085l-0.108-0.086l-0.105-0.084l-0.109-0.085l-0.107-0.083l-0.108-0.083
	l-0.109-0.083l-0.107-0.084l-0.109-0.082l-0.109-0.084l-0.11-0.081l-0.108-0.081l-0.11-0.082l-0.111-0.081l-0.109-0.082l-0.11-0.081
	l-0.112-0.079l-0.112-0.08l-0.11-0.08l-0.113-0.079l-0.11-0.079l-0.113-0.079l-0.112-0.078l-0.113-0.078l-0.112-0.077l-0.111-0.078
	l-0.115-0.076l-0.114-0.076l-0.113-0.076l-0.115-0.075l-0.113-0.076l-0.117-0.074l-0.113-0.074l-0.117-0.074l-0.114-0.074
	l-0.114-0.074l-0.117-0.072l-0.117-0.073l-0.116-0.072l-0.115-0.072l-0.119-0.073l-0.116-0.069l-0.117-0.072l-0.118-0.071
	l-0.118-0.069l-0.116-0.07l-0.12-0.069l-0.117-0.069l-0.119-0.068l-0.12-0.069l-0.119-0.068l-0.117-0.066l-0.12-0.068l-0.12-0.067
	l-0.12-0.067l-0.12-0.065l-0.121-0.067l-0.119-0.065l-0.121-0.064l-0.122-0.065l-0.121-0.064l-0.121-0.064l-0.121-0.063
	l-0.124-0.062l-0.119-0.063l-0.124-0.063l-0.122-0.062l-0.122-0.063l-0.123-0.061l-0.124-0.06l-0.122-0.061l-0.124-0.061
	l-0.123-0.059l-0.125-0.06l-0.121-0.059l-0.127-0.058l-0.125-0.059l-0.124-0.058l-0.123-0.056l-0.127-0.058l-0.125-0.057
	l-0.125-0.056l-0.126-0.056l-0.125-0.055l-0.126-0.055l-0.126-0.055l-0.126-0.054l-0.126-0.054l-0.127-0.053l-0.125-0.054
	l-0.129-0.052l-0.127-0.052l-0.127-0.052l-0.127-0.051l-0.129-0.052l-0.128-0.05l-0.127-0.051l-0.128-0.051l-0.127-0.048
	l-0.13-0.049l-0.128-0.049l-0.131-0.049l-0.127-0.048l-0.13-0.047l-0.128-0.047l-0.129-0.047l-0.129-0.046l-0.131-0.046l-0.13-0.045
	l-0.13-0.046l-0.131-0.044l-0.129-0.044l-0.131-0.045l-0.131-0.043l-0.131-0.043l-0.129-0.043l-0.133-0.041l-0.131-0.042
	l-0.131-0.041l-0.131-0.042l-0.131-0.04l-0.131-0.041l-0.132-0.039l-0.133-0.041l-0.131-0.038l-0.133-0.038l-0.132-0.039
	l-0.132-0.038l-0.134-0.038l-0.131-0.036l-0.134-0.037l-0.132-0.036l-0.132-0.036l-0.134-0.036l-0.134-0.035l-0.134-0.034
	l-0.135-0.035l-0.131-0.033l-0.134-0.034l-0.134-0.034l-0.135-0.032l-0.133-0.033l-0.135-0.031l-0.131-0.032l-0.135-0.032
	l-0.135-0.03l-0.137-0.03l-0.133-0.029l-0.135-0.03l-0.135-0.028l-0.135-0.029l-0.134-0.028l-0.138-0.028l-0.133-0.027l-0.135-0.028
	l-0.137-0.026L742.286,149l-0.134-0.025l-0.136-0.025l-0.135-0.026l-0.137-0.023l-0.135-0.024l-0.136-0.023l-0.137-0.022
	l-0.136-0.023l-0.135-0.022l-0.137-0.022l-0.136-0.021l-0.136-0.022l-0.138-0.019l-0.136-0.02l-0.137-0.02l-0.136-0.02l-0.137-0.018
	l-0.136-0.019l-0.138-0.018l-0.136-0.017l-0.139-0.017l-0.135-0.018l-0.137-0.015l-0.136-0.017l-0.14-0.015l-0.135-0.016
	l-0.136-0.014l-0.141-0.014l-0.135-0.014l-0.138-0.013l-0.137-0.014l-0.137-0.013l-0.138-0.012l-0.139-0.012l-0.136-0.011
	l-0.138-0.011l-0.138-0.01l-0.137-0.01l-0.137-0.009l-0.14-0.01l-0.136-0.008l-0.139-0.008l-0.138-0.007l-0.136-0.008l-0.14-0.007
	l-0.138-0.006l-0.137-0.005l-0.137-0.006l-0.139-0.005l-0.137-0.005l-0.139-0.004l-0.136-0.003l-0.14-0.004l-0.139-0.003
	l-0.135-0.002l-0.141-0.003l-0.137-0.001l-0.138,0l-0.138-0.001l-0.137-0.001h-0.139l-0.138,0.001l-0.138,0.001l-0.139,0
	l-0.138,0.001l-0.139,0.001l-0.138,0.003l-0.138,0.003l-0.139,0.003l-0.137,0.003l-0.14,0.005l-0.134,0.004l-0.14,0.005
	l-0.138,0.006l-0.137,0.005l-0.138,0.006l-0.137,0.007l-0.139,0.006l-0.137,0.008l-0.139,0.009l-0.137,0.008l-0.138,0.009
	l-0.139,0.009l-0.136,0.01l-0.139,0.01l-0.138,0.01l-0.136,0.012l-0.139,0.011l-0.136,0.011l-0.139,0.013l-0.135,0.013l-0.138,0.014
	l-0.139,0.013l-0.136,0.014l-0.137,0.015l-0.138,0.014l-0.137,0.016l-0.138,0.015l-0.137,0.016l-0.137,0.018l-0.137,0.016
	l-0.136,0.018l-0.138,0.018l-0.138,0.018l-0.134,0.019l-0.138,0.02l-0.137,0.019l-0.135,0.02l-0.137,0.021l-0.139,0.021
	l-0.135,0.021l-0.135,0.022l-0.137,0.021l-0.137,0.022l-0.135,0.023l-0.136,0.022l-0.135,0.023l-0.138,0.024l-0.135,0.024
	l-0.135,0.024l-0.135,0.026l-0.137,0.024l-0.134,0.027l-0.135,0.026l-0.136,0.026l-0.135,0.027l-0.136,0.029l-0.134,0.028
	l-0.135,0.029l-0.135,0.029l-0.134,0.029l-0.135,0.029l-0.136,0.031l-0.133,0.031l-0.133,0.031l-0.135,0.031l-0.134,0.033
	l-0.134,0.032l-0.133,0.033l-0.135,0.033l-0.133,0.033l-0.135,0.035l-0.133,0.034l-0.133,0.034l-0.133,0.035l-0.133,0.036
	l-0.133,0.036l-0.132,0.037l-0.133,0.037l-0.133,0.037l-0.133,0.037l-0.132,0.038l-0.132,0.039l-0.131,0.038l-0.132,0.041
	l-0.133,0.039l-0.132,0.041l-0.131,0.041l-0.132,0.042l-0.131,0.04l-0.131,0.042l-0.131,0.041l-0.132,0.042l-0.13,0.044
	l-0.132,0.043l-0.13,0.043l-0.131,0.045l-0.13,0.044l-0.128,0.045l-0.13,0.046l-0.13,0.045l-0.13,0.045l-0.129,0.047l-0.129,0.048
	l-0.129,0.046l-0.131,0.049l-0.128,0.047l-0.129,0.048l-0.129,0.05l-0.127,0.05l-0.127,0.048l-0.129,0.051l-0.129,0.05l-0.126,0.051
	l-0.129,0.052l-0.126,0.051l-0.129,0.052l-0.126,0.053l-0.126,0.053l-0.128,0.053l-0.126,0.053l-0.127,0.055l-0.125,0.054
	l-0.127,0.055l-0.124,0.055l-0.127,0.056l-0.125,0.056l-0.125,0.057l-0.124,0.057l-0.127,0.057l-0.124,0.056l-0.126,0.059
	l-0.122,0.058l-0.125,0.059l-0.124,0.059l-0.124,0.059l-0.123,0.061l-0.124,0.06l-0.123,0.062l-0.122,0.06l-0.123,0.062
	l-0.123,0.063l-0.122,0.062l-0.122,0.063l-0.122,0.063l-0.122,0.063l-0.122,0.063l-0.121,0.064l-0.12,0.063l-0.123,0.066
	l-0.12,0.064l-0.121,0.065l-0.118,0.066l-0.122,0.066l-0.119,0.067l-0.119,0.067l-0.119,0.067l-0.12,0.067l-0.119,0.067
	l-0.118,0.069l-0.118,0.068l-0.118,0.07l-0.12,0.07l-0.117,0.069l-0.118,0.071l-0.118,0.071l-0.117,0.071l-0.115,0.071l-0.118,0.072
	l-0.115,0.072l-0.117,0.072l-0.116,0.073l-0.117,0.073l-0.113,0.074l-0.118,0.074l-0.111,0.074l-0.116,0.074l-0.116,0.076
	l-0.114,0.074l-0.113,0.076l-0.114,0.076l-0.115,0.077l-0.112,0.076l-0.112,0.078l-0.114,0.077l-0.112,0.078l-0.113,0.078
	l-0.113,0.078l-0.109,0.08l-0.113,0.079l-0.111,0.079l-0.11,0.08l-0.111,0.081l-0.112,0.08l-0.108,0.081l-0.111,0.082l-0.109,0.081
	l-0.109,0.082l-0.109,0.082l-0.109,0.083l-0.109,0.082l-0.108,0.083l-0.108,0.084l-0.108,0.084l-0.107,0.084l-0.107,0.085
	l-0.107,0.085l-0.106,0.084l-0.108,0.085l-0.105,0.087l-0.107,0.086l-0.106,0.087l-0.105,0.087l-0.104,0.087l-0.105,0.088
	l-0.104,0.087l-0.106,0.088l-0.103,0.088l-0.104,0.088l-0.104,0.09l-0.101,0.089l-0.105,0.09l-0.102,0.09l-0.104,0.09l-0.102,0.09
	l-0.104,0.091l-0.101,0.091l-0.101,0.09l-0.104,0.092l-0.099,0.093l-0.101,0.093l-0.101,0.092l-0.101,0.094l-0.1,0.094l-0.098,0.093
	l-0.099,0.095l-0.101,0.094l-0.099,0.095l-0.098,0.094l-0.097,0.096l-0.098,0.095l-0.098,0.096l-0.098,0.097l-0.096,0.096
	l-0.097,0.098l-0.095,0.096l-0.095,0.098l-0.097,0.097l-0.094,0.098l-0.096,0.098l-0.093,0.099l-0.094,0.099l-0.096,0.099
	l-0.094,0.1l-0.093,0.1l-0.093,0.1l-0.093,0.1l-0.091,0.1l-0.091,0.101l-0.094,0.101l-0.089,0.103l-0.091,0.1l-0.091,0.102
	l-0.091,0.103l-0.089,0.104l-0.09,0.101l-0.091,0.104l-0.088,0.103l-0.089,0.104l-0.088,0.103l-0.088,0.105l-0.088,0.104
	l-0.086,0.104l-0.09,0.105l-0.084,0.105l-0.088,0.106l-0.086,0.105l-0.085,0.106l-0.085,0.106l-0.084,0.106l-0.087,0.106
	l-0.083,0.107l-0.083,0.107l-0.083,0.108l-0.084,0.107l-0.084,0.108l-0.082,0.108l-0.081,0.109l-0.081,0.109l-0.081,0.109
	l-0.081,0.11l-0.08,0.109l-0.081,0.109l-0.08,0.111l-0.078,0.11l-0.08,0.11l-0.079,0.112l-0.078,0.112l-0.078,0.111l-0.078,0.11
	l-0.077,0.112l-0.078,0.113l-0.077,0.112l-0.075,0.114l-0.077,0.111l-0.074,0.114l-0.077,0.113l-0.074,0.113l-0.074,0.115
	l-0.075,0.114l-0.073,0.114l-0.073,0.114l-0.073,0.115l-0.072,0.116l-0.073,0.114l-0.072,0.116l-0.071,0.116l-0.07,0.116
	l-0.071,0.116l-0.071,0.117l-0.07,0.115l-0.069,0.117l-0.069,0.117l-0.07,0.117l-0.068,0.117l-0.067,0.118l-0.068,0.117
	l-0.067,0.117l-0.067,0.12l-0.067,0.118l-0.065,0.119l-0.065,0.118l-0.065,0.118l-0.066,0.121l-0.065,0.118l-0.064,0.12l-0.063,0.12
	l-0.064,0.12l-0.063,0.119l-0.063,0.121l-0.063,0.122l-0.062,0.121l-0.063,0.121l-0.062,0.12l-0.059,0.122l-0.061,0.121
	l-0.061,0.122l-0.061,0.122l-0.059,0.123l-0.06,0.122l-0.059,0.123l-0.06,0.123l-0.057,0.122l-0.057,0.124l-0.059,0.124
	l-0.056,0.123l-0.057,0.124l-0.057,0.123l-0.056,0.124l-0.055,0.125l-0.055,0.124l-0.054,0.125l-0.055,0.125l-0.054,0.124
	l-0.053,0.126l-0.054,0.125l-0.052,0.126l-0.051,0.124l-0.054,0.126l-0.05,0.125l-0.051,0.126l-0.052,0.126l-0.047,0.126
	l-0.051,0.126l-0.048,0.127l-0.049,0.126l-0.05,0.127l-0.048,0.127l-0.049,0.126l-0.046,0.127l-0.048,0.127l-0.045,0.128
	l-0.045,0.127l-0.047,0.128l-0.044,0.127l-0.046,0.128l-0.043,0.128l-0.045,0.128l-0.042,0.129l-0.044,0.128l-0.042,0.128
	l-0.042,0.128l-0.042,0.129l-0.041,0.13l-0.043,0.129l-0.042,0.129l-0.037,0.129l-0.041,0.13l-0.038,0.131l-0.04,0.129l-0.038,0.13
	l-0.037,0.13l-0.037,0.13l-0.038,0.13l-0.035,0.13l-0.039,0.131l-0.035,0.13l-0.034,0.13l-0.037,0.132l-0.033,0.131l-0.035,0.13
	l-0.033,0.131l-0.033,0.132l-0.034,0.131l-0.033,0.133l-0.031,0.131l-0.033,0.132l-0.029,0.131l-0.031,0.132l-0.03,0.132
	l-0.03,0.131l-0.03,0.131l-0.027,0.132l-0.031,0.132l-0.027,0.133l-0.028,0.133l-0.027,0.133l-0.027,0.132l-0.025,0.134
	l-0.028,0.133l-0.024,0.133l-0.026,0.132l-0.024,0.133l-0.024,0.133l-0.024,0.134l-0.025,0.133l-0.022,0.134l-0.022,0.133
	l-0.021,0.134l-0.022,0.134l-0.021,0.133l-0.02,0.133l-0.021,0.133l-0.021,0.135l-0.021,0.134l-0.02,0.134l-0.019,0.134
	l-0.019,0.133l-0.018,0.134l-0.018,0.134l-0.018,0.134l-0.018,0.134l-0.017,0.135l-0.015,0.134l-0.016,0.135l-0.014,0.134
	l-0.017,0.136l-0.015,0.133l-0.014,0.135l-0.013,0.135l-0.013,0.135l-0.013,0.134l-0.013,0.135l-0.011,0.135l-0.012,0.134
	l-0.012,0.136l-0.01,0.135l-0.012,0.134l-0.008,0.135l-0.008,0.136l-0.009,0.135l-0.009,0.135l-0.006,0.135l-0.011,0.135
	l-0.007,0.135l-0.005,0.135l-0.007,0.135l-0.006,0.135l-0.005,0.134l-0.005,0.135l-0.003,0.136l-0.005,0.136l-0.004,0.135
	l-0.003,0.136l-0.002,0.135l-0.001,0.135l-0.003,0.135l-0.002,0.135l-0.001,0.136v0.135v0.136v0.135l0.001,0.136l0.002,0.135
	l0.003,0.137l0.001,0.135l0.002,0.136l0.003,0.135l0.004,0.136l0.005,0.134l0.003,0.135l0.005,0.136l0.005,0.135l0.006,0.135
	l0.007,0.135l0.005,0.135l0.007,0.135l0.011,0.136l0.006,0.136l0.009,0.135l0.009,0.134l0.008,0.136l0.008,0.135l0.012,0.135
	l0.01,0.135l0.012,0.135l0.012,0.134l0.011,0.135l0.013,0.135l0.013,0.134l0.013,0.135l0.013,0.135l0.014,0.134l0.015,0.134
	l0.017,0.135l0.014,0.135l0.016,0.134l0.015,0.135l0.017,0.133l0.018,0.135l0.018,0.134l0.018,0.134l0.018,0.135l0.019,0.133
	l0.019,0.134l0.02,0.134l0.021,0.134l0.021,0.134l0.021,0.133l0.02,0.134l0.021,0.134l0.022,0.133l0.021,0.134l0.022,0.133
	l0.022,0.134l0.025,0.133l0.024,0.133l0.024,0.133l0.024,0.134l0.026,0.132l0.024,0.132l0.028,0.133l0.025,0.133l0.027,0.132
	l0.027,0.133l0.028,0.132l0.027,0.133l0.031,0.132l0.027,0.133l0.03,0.132l0.03,0.131l0.03,0.132l0.031,0.132l0.029,0.131
	l0.033,0.133l0.031,0.131l0.033,0.131l0.034,0.133l0.033,0.131l0.033,0.13l0.035,0.131l0.033,0.131l0.037,0.131l0.034,0.131
	l0.035,0.131l0.039,0.13l0.035,0.13l0.038,0.13l0.037,0.131l0.037,0.13l0.038,0.13l0.04,0.13l0.038,0.129l0.041,0.129l0.037,0.13
	l0.042,0.129l0.043,0.129l0.041,0.129l0.042,0.13l0.042,0.128l0.042,0.128l0.044,0.129l0.042,0.128l0.045,0.128l0.043,0.128
	l0.046,0.128l0.044,0.128l0.047,0.128l0.045,0.127l0.045,0.127l0.048,0.127l0.046,0.127l0.049,0.126l0.048,0.127l0.05,0.126
	l0.049,0.126l0.048,0.126l0.051,0.126l0.047,0.126l0.052,0.126l0.051,0.126l0.05,0.125l0.054,0.125l0.051,0.125l0.052,0.126
	l0.054,0.125l0.053,0.125l0.054,0.125l0.055,0.124l0.054,0.125l0.055,0.124l0.055,0.125l0.056,0.124l0.057,0.123l0.057,0.124
	l0.056,0.123l0.059,0.124l0.057,0.123l0.057,0.123l0.06,0.123l0.059,0.124l0.06,0.121l0.059,0.123l0.061,0.122l0.061,0.122
	l0.061,0.121l0.059,0.121l0.062,0.121l0.063,0.121l0.062,0.121l0.063,0.121l0.063,0.121l0.063,0.12l0.064,0.12l0.063,0.12
	l0.064,0.119l0.065,0.119l0.066,0.12l0.065,0.119l0.065,0.12l0.065,0.118l0.067,0.119l0.067,0.118l0.067,0.118l0.068,0.117
	l0.067,0.118l0.068,0.118l0.07,0.117l0.069,0.117l0.069,0.117l0.07,0.116l0.071,0.117l0.071,0.116l0.07,0.116l0.071,0.115
	l0.072,0.116l0.073,0.114l0.072,0.116l0.073,0.114l0.073,0.115l0.073,0.114l0.075,0.113l0.074,0.114l0.074,0.114l0.077,0.113
	l0.074,0.112l0.077,0.114l0.075,0.112l0.077,0.112l0.078,0.112l0.077,0.113l0.078,0.111l0.078,0.112l0.078,0.111l0.079,0.111
	l0.08,0.11l0.078,0.112l0.08,0.109l0.081,0.11l0.08,0.11l0.081,0.109l0.081,0.109l0.081,0.108l0.081,0.109l0.082,0.108l0.084,0.108
	l0.084,0.108l0.083,0.107l0.083,0.108l0.083,0.108l0.087,0.106l0.084,0.106l0.085,0.106l0.085,0.106l0.086,0.106l0.088,0.105
	l0.084,0.105l0.09,0.105l0.086,0.105l0.088,0.104l0.088,0.104l0.088,0.104l0.089,0.104l0.088,0.104l0.091,0.103l0.09,0.103
	l0.089,0.103l0.091,0.102l0.091,0.103l0.091,0.102l0.089,0.101l0.094,0.102l0.091,0.1l0.091,0.102l0.093,0.1l0.093,0.099l0.093,0.1
	l0.094,0.1l0.096,0.099l0.094,0.099l0.093,0.098l0.096,0.099l0.094,0.098l0.097,0.097l0.095,0.098l0.095,0.097l0.097,0.097
	l0.096,0.097l0.098,0.096l0.098,0.096l0.098,0.095l0.097,0.095l0.098,0.095l0.099,0.095l0.101,0.095l0.099,0.093l0.098,0.095
	l0.1,0.093l0.101,0.094l0.101,0.092l0.101,0.093l0.099,0.093l0.104,0.092l0.101,0.091l0.101,0.091l0.104,0.091l0.102,0.091
	l0.104,0.09l0.102,0.09l0.105,0.09l0.101,0.091l0.104,0.088l0.104,0.089l0.103,0.088l0.106,0.088l0.104,0.088l0.105,0.087
	l0.104,0.087l0.105,0.087l0.106,0.085l0.107,0.087l0.105,0.085l0.108,0.085l0.106,0.085l0.107,0.084l0.107,0.085l0.107,0.084
	l0.108,0.084l0.108,0.083l0.108,0.083l0.109,0.083l0.109,0.082l0.109,0.082l0.109,0.083l0.109,0.083l0.111,0.081l0.108,0.08
	l0.112,0.08l0.111,0.081l0.11,0.08l0.111,0.079l0.113,0.08l0.109,0.079l0.113,0.079l0.113,0.078l0.112,0.078l0.114,0.078
	l0.112,0.076l0.112,0.077l0.115,0.077l0.114,0.075l0.113,0.075l0.114,0.077l0.116,0.073l0.116,0.076l0.111,0.074l0.118,0.074
	l0.113,0.074l0.117,0.074l0.116,0.072l0.117,0.073l0.115,0.073l0.118,0.071l0.115,0.071l0.117,0.071l0.118,0.071l0.118,0.07
	l0.117,0.07l0.12,0.07l0.118,0.07l0.118,0.068l0.118,0.07l0.119,0.068l0.12,0.067l0.119,0.068l0.119,0.067l0.119,0.067l0.122,0.066
	l0.118,0.066l0.121,0.065l0.12,0.065l0.123,0.065l0.12,0.065l0.121,0.064l0.122,0.063l0.122,0.063l0.122,0.063l0.122,0.062
	l0.122,0.063l0.123,0.061l0.123,0.061l0.122,0.062l0.123,0.06l0.124,0.061l0.123,0.059l0.124,0.06l0.124,0.06l0.125,0.058
	l0.122,0.058l0.126,0.059l0.124,0.057l0.127,0.058l0.124,0.056l0.125,0.057l0.125,0.056l0.127,0.055l0.124,0.055l0.127,0.056
	l0.125,0.054l0.127,0.054l0.126,0.053l0.128,0.054l0.126,0.053l0.126,0.052l0.129,0.053l0.126,0.05l0.129,0.052l0.126,0.051
	l0.129,0.05l0.129,0.05l0.127,0.05l0.127,0.049l0.129,0.049l0.129,0.048l0.128,0.047l0.131,0.049l0.129,0.047l0.129,0.047
	l0.129,0.046l0.13,0.046l0.13,0.046l0.13,0.045l0.128,0.046l0.13,0.044l0.131,0.044l0.13,0.044l0.132,0.042l0.13,0.043l0.132,0.042
	l0.131,0.042l0.131,0.042l0.131,0.042l0.132,0.04l0.131,0.042l0.132,0.04l0.133,0.039l0.132,0.04l0.131,0.038l0.132,0.04
	l0.132,0.037l0.133,0.039l0.133,0.037l0.133,0.038l0.132,0.035l0.133,0.036l0.133,0.037l0.133,0.036l0.133,0.033l0.133,0.035
	l0.135,0.035l0.133,0.033l0.135,0.032l0.133,0.033l0.134,0.032l0.134,0.033l0.135,0.03l0.133,0.031l0.133,0.031l0.136,0.031
	l0.135,0.031l0.134,0.028l0.135,0.03l0.135,0.028l0.134,0.028l0.136,0.027l0.135,0.027l0.136,0.027l0.135,0.026l0.134,0.026
	l0.137,0.026l0.135,0.025l0.135,0.026l0.135,0.024l0.138,0.023l0.135,0.024l0.136,0.024l0.135,0.022l0.137,0.021l0.137,0.024
	l0.135,0.02l0.135,0.022l0.139,0.021l0.137,0.02l0.135,0.02l0.137,0.02l0.138,0.019l0.134,0.018l0.138,0.02l0.138,0.016l0.136,0.019
	l0.137,0.016l0.137,0.017l0.137,0.016l0.138,0.016l0.137,0.015l0.138,0.014l0.137,0.016l0.136,0.014l0.139,0.012l0.138,0.013
	l0.135,0.014l0.139,0.012l0.136,0.011l0.139,0.012l0.136,0.012l0.138,0.01l0.139,0.01l0.136,0.01l0.139,0.01l0.138,0.008
	l0.137,0.008l0.139,0.007l0.137,0.009l0.139,0.007l0.137,0.007l0.138,0.005l0.137,0.006l0.138,0.006l0.14,0.005l0.134,0.004
	l0.14,0.004l0.137,0.005l0.139,0.002l0.138,0.003l0.138,0.002l0.139,0.003h0.138l0.139,0l0.138,0.001l0.138,0h0.139l0.137,0
	l0.138-0.001l0.138,0l0.137-0.002l0.141-0.002l0.135-0.003l0.139-0.003l0.14-0.003l0.136-0.004l0.139-0.004l0.137-0.005l0.139-0.006
	l0.137-0.005l0.137-0.006l0.138-0.006l0.14-0.007l0.136-0.007l0.138-0.009l0.139-0.007l0.136-0.008l0.14-0.009l0.137-0.01
	l0.137-0.01l0.138-0.01l0.138-0.011l0.136-0.01l0.139-0.013l0.138-0.011l0.137-0.013l0.137-0.013l0.138-0.013l0.135-0.015
	l0.141-0.014l0.136-0.015l0.135-0.015l0.14-0.016l0.136-0.015l0.137-0.016l0.135-0.017l0.139-0.017l0.136-0.019l0.138-0.018
	l0.136-0.018l0.137-0.019l0.136-0.02l0.137-0.019l0.136-0.02l0.138-0.021l0.136-0.021l0.136-0.019l0.137-0.023l0.135-0.021
	l0.136-0.022l0.137-0.023l0.136-0.023l0.135-0.023l0.137-0.024l0.135-0.025l0.136-0.024l0.134-0.026l0.135-0.026l0.137-0.026
	l0.135-0.026l0.133-0.028l0.138-0.027l0.134-0.029l0.135-0.028l0.135-0.028l0.135-0.029l0.133-0.031l0.137-0.028l0.135-0.031
	l0.135-0.031l0.131-0.032l0.135-0.031l0.133-0.032l0.135-0.032l0.134-0.034l0.134-0.033l0.131-0.033l0.135-0.034l0.134-0.035
	l0.134-0.036l0.134-0.034l0.132-0.036l0.132-0.037l0.134-0.036l0.131-0.037l0.134-0.037l0.132-0.038l0.132-0.039l0.133-0.038
	l0.131-0.04l0.133-0.038l0.132-0.042l0.131-0.039l0.131-0.042l0.131-0.04l0.131-0.042l0.131-0.042l0.133-0.042l0.129-0.043
	l0.131-0.042l0.131-0.045l0.131-0.042l0.129-0.045l0.131-0.046l0.13-0.043l0.13-0.047l0.131-0.045l0.129-0.046l0.129-0.046
	l0.128-0.047l0.13-0.047l0.127-0.048l0.131-0.048l0.128-0.05l0.13-0.048l0.127-0.049l0.128-0.05l0.127-0.051l0.128-0.051
	l0.129-0.051l0.127-0.051l0.127-0.052l0.127-0.053l0.129-0.051l0.125-0.054l0.127-0.053l0.126-0.054l0.126-0.055l0.126-0.055
	l0.126-0.054l0.125-0.056l0.126-0.056l0.125-0.055l0.125-0.057l0.127-0.058l0.123-0.057l0.124-0.058l0.125-0.057l0.127-0.059
	l0.121-0.058l0.125-0.06l0.123-0.06l0.124-0.061l0.122-0.06l0.124-0.06l0.123-0.062l0.122-0.062l0.122-0.062l0.124-0.063
	l0.119-0.063l0.124-0.062l0.121-0.063l0.121-0.064l0.121-0.064l0.122-0.065l0.121-0.064l0.119-0.065l0.121-0.065l0.12-0.065
	l0.12-0.067l0.12-0.067l0.12-0.067l0.117-0.067l0.119-0.068l0.12-0.068l0.119-0.069l0.117-0.069l0.12-0.069l0.116-0.069l0.118-0.07
	l0.118-0.07l0.117-0.072l0.116-0.07l0.119-0.072l0.115-0.072l0.116-0.072l0.117-0.073l0.117-0.073l0.114-0.074l0.114-0.073
	l0.117-0.074l0.113-0.075l0.117-0.074l0.113-0.075l0.115-0.076l0.113-0.075l0.114-0.077l0.115-0.076l0.111-0.078l0.112-0.078
	l0.113-0.077l0.112-0.077l0.113-0.079l0.11-0.079l0.113-0.08l0.11-0.078l0.112-0.081l0.112-0.079l0.11-0.081l0.109-0.081
	l0.111-0.081l0.11-0.082l0.108-0.081l0.11-0.082l0.109-0.083l0.109-0.082l0.107-0.083l0.109-0.084l0.108-0.083l0.107-0.083
	l0.109-0.086l0.105-0.085l0.108-0.084l0.106-0.084l0.106-0.086l0.106-0.085l0.107-0.087l0.105-0.085l0.104-0.087l0.104-0.088
	l0.106-0.088l0.104-0.087l0.104-0.089l0.105-0.088l0.103-0.088l0.104-0.089l0.104-0.09l0.104-0.091l0.101-0.089l0.102-0.092
	l0.103-0.09l0.103-0.092l0.101-0.092l0.102-0.09l0.101-0.093l0.101-0.092l0.102-0.093l0.1-0.093l0.099-0.093l0.1-0.095l0.099-0.093
	l0.1-0.094l0.099-0.095l0.097-0.095l0.099-0.095l0.099-0.096l0.098-0.096l0.097-0.096l0.095-0.097l0.098-0.097l0.097-0.097
	l0.097-0.098l0.095-0.097l0.096-0.099l0.095-0.098l0.094-0.098l0.093-0.099l0.096-0.098l0.093-0.1l0.094-0.1l0.093-0.1l0.091-0.1
	l0.094-0.101l0.092-0.101l0.093-0.101l0.09-0.101l0.093-0.102l0.09-0.102l0.091-0.102l0.091-0.103l0.089-0.103l0.089-0.103
	l0.088-0.103l0.09-0.104l0.088-0.104l0.088-0.104l0.089-0.104l0.085-0.105l0.089-0.104l0.086-0.106l0.087-0.104l0.086-0.105
	l0.085-0.107l0.085-0.106l0.085-0.107l0.085-0.106l0.085-0.107l0.084-0.106l0.085-0.107l0.081-0.108l0.083-0.109l0.083-0.107
	l0.082-0.108l0.083-0.109l0.08-0.109l0.083-0.11l0.08-0.109l0.081-0.109l0.079-0.111l0.08-0.109l0.08-0.11l0.08-0.111l0.075-0.11
	l0.081-0.111l0.077-0.112l0.079-0.112l0.075-0.111l0.077-0.112l0.076-0.113l0.076-0.112l0.075-0.114l0.076-0.113l0.075-0.113
	l0.075-0.114l0.075-0.113l0.074-0.114l0.071-0.115l0.075-0.114l0.073-0.114l0.07-0.115l0.074-0.117l0.072-0.115l0.07-0.116
	l0.072-0.115l0.07-0.116l0.07-0.116l0.07-0.117l0.068-0.118l0.069-0.117l0.07-0.116l0.067-0.117l0.068-0.118l0.067-0.118
	l0.067-0.118l0.068-0.119l0.064-0.119l0.066-0.118l0.066-0.119l0.067-0.119l0.063-0.12l0.066-0.119l0.063-0.121l0.064-0.12
	l0.063-0.12l0.062-0.12l0.064-0.121l0.062-0.121l0.062-0.121l0.063-0.122l0.063-0.12l0.06-0.122l0.06-0.122l0.06-0.122l0.061-0.122
	l0.06-0.121l0.058-0.123l0.06-0.123l0.059-0.123l0.059-0.122l0.057-0.124l0.057-0.123l0.056-0.122l0.056-0.125l0.057-0.123
	l0.056-0.125l0.054-0.123l0.057-0.125l0.052-0.124l0.056-0.125l0.054-0.125l0.053-0.125l0.052-0.125l0.053-0.125l0.051-0.125
	l0.052-0.125l0.051-0.125l0.05-0.126l0.051-0.125l0.05-0.127l0.05-0.126l0.05-0.126l0.046-0.125l0.051-0.127l0.047-0.127
	l0.046-0.126l0.048-0.127l0.046-0.127l0.047-0.127l0.046-0.127l0.046-0.128l0.045-0.127l0.045-0.129l0.043-0.128l0.043-0.128
	l0.044-0.128l0.043-0.128l0.041-0.127l0.044-0.13l0.04-0.129l0.043-0.128l0.039-0.13l0.041-0.129l0.037-0.13l0.042-0.129l0.039-0.13
	l0.038-0.13l0.039-0.13l0.038-0.13l0.036-0.13l0.037-0.129l0.036-0.13l0.038-0.13l0.035-0.131l0.035-0.13l0.034-0.131l0.034-0.131
	l0.035-0.131l0.033-0.131l0.032-0.131l0.034-0.131l0.03-0.132l0.033-0.131l0.031-0.132l0.032-0.131l0.031-0.132l0.028-0.132
	l0.032-0.132l0.028-0.132l0.028-0.132l0.028-0.132l0.03-0.133l0.024-0.132l0.028-0.132l0.029-0.131l0.025-0.134l0.024-0.133
	l0.028-0.133l0.023-0.133l0.025-0.133l0.024-0.133l0.024-0.133l0.022-0.133l0.023-0.134l0.022-0.133l0.021-0.134l0.022-0.133
	l0.021-0.134l0.021-0.132l0.021-0.135l0.02-0.134l0.021-0.134l0.017-0.134l0.02-0.134l0.02-0.134l0.017-0.134l0.018-0.136
	l0.019-0.134l0.015-0.134l0.017-0.134l0.018-0.135l0.014-0.135l0.016-0.134l0.014-0.134l0.014-0.135l0.014-0.134l0.014-0.135
	l0.014-0.135l0.012-0.135l0.012-0.135l0.012-0.135l0.011-0.136l0.012-0.134l0.009-0.135l0.01-0.135l0.01-0.137l0.009-0.135
	l0.009-0.135l0.008-0.134l0.008-0.134l0.006-0.135l0.008-0.136l0.007-0.136l0.005-0.134l0.005-0.135l0.006-0.135l0.005-0.135
	l0.004-0.136l0.003-0.135l0.004-0.136l0.003-0.135l0.004-0.135v-0.136l0.002-0.134l0.001-0.136v-0.135v-0.136"/>
<line fill="none" stroke="#159BFF" stroke-width="2" stroke-linejoin="bevel" stroke-miterlimit="10" x1="848" y1="114.977" x2="897.368" y2="114.977"/>
<line fill="none" stroke="#DB5726" stroke-width="2" stroke-linejoin="bevel" stroke-miterlimit="10" x1="848" y1="154.418" x2="897.368" y2="154.418"/>
<line fill="none" stroke="#EBAF21" stroke-width="2" stroke-linejoin="bevel" stroke-miterlimit="10" x1="848" y1="134.418" x2="897.337" y2="134.418"/>
<text transform="matrix(1.0183 0 0 1 909.3828 118.9634)" fill="#48484A" font-family="'Helvetica'" font-size="18">c(t)</text>
<text transform="matrix(1.0183 0 0 1 907.0225 137.6675)" fill="#48484A" font-family="'Helvetica'" font-size="18"> s</text>
<text transform="matrix(0.5937 0 0 0.583 918.166 143.6616)" fill="#48484A" font-family="'Helvetica'" font-size="18">1</text>
<text transform="matrix(1.0183 0 0 1 923.6475 137.6675)" fill="#48484A" font-family="'Helvetica'" font-size="18">(t)</text>
<text transform="matrix(1.0183 0 0 1 909.3818 196.3491)" fill="#48484A" font-family="'Helvetica'" font-size="18">junction </text>
<text transform="matrix(1.0183 0 0 1 907.0225 155.6675)" fill="#48484A" font-family="'Helvetica'" font-size="18"> s</text>
<text transform="matrix(0.5937 0 0 0.583 918.166 161.6616)" fill="#48484A" font-family="'Helvetica'" font-size="18">2</text>
<text transform="matrix(1.0183 0 0 1 923.6475 155.6675)" fill="#48484A" font-family="'Helvetica'" font-size="18">(t)</text>
<path fill="#FFFFFF" stroke="#000000" stroke-miterlimit="10" d="M877.081,192.942c0,1.578-1.306,2.858-2.909,2.858
	c-1.605,0-2.909-1.28-2.909-2.858c0-1.576,1.304-2.854,2.909-2.854C875.775,190.088,877.081,191.367,877.081,192.942"/>
<line fill="none" stroke="#000000" stroke-linejoin="bevel" stroke-miterlimit="10" x1="848" y1="173.918" x2="897.368" y2="173.918"/>
<text transform="matrix(1.0183 0 0 1 908.0225 176.9175)" fill="#48484A" font-family="'Helvetica'" font-size="18"> q(t)</text>
<line fill="none" stroke="#000000" stroke-miterlimit="10" x1="213.896" y1="72.502" x2="213.707" y2="77.198"/>
<line fill="none" stroke="#000000" stroke-miterlimit="10" x1="360.876" y1="221.897" x2="360.708" y2="226.025"/>
<line fill="none" stroke="#000000" stroke-miterlimit="10" x1="644.617" y1="326.288" x2="644.469" y2="330.178"/>
<line fill="none" stroke="#000000" stroke-miterlimit="10" x1="781.819" y1="459.332" x2="781.662" y2="463.011"/>
<line fill="none" stroke="#000000" stroke-miterlimit="10" x1="210.616" y1="332.971" x2="210.45" y2="336.929"/>
<line fill="none" stroke="#000000" stroke-miterlimit="10" x1="361.09" y1="470.768" x2="360.917" y2="474.58"/>
<text transform="matrix(1 0 0 1 434 258.667)" font-family="'Helvetica'" font-size="18">a)</text>
<text transform="matrix(1 0 0 1 848 259)" font-family="'Helvetica'" font-size="18">b)</text>
<text transform="matrix(1 0 0 1 434 506.667)" font-family="'Helvetica'" font-size="18">c)</text>
<text transform="matrix(1 0 0 1 848 506)" font-family="'Helvetica'" font-size="18">d)</text>
<path fill="#FFFFFF" stroke="#000000" stroke-width="2" stroke-miterlimit="10" d="M669.208,389.523c0,2.468-2.041,4.47-4.548,4.47
	c-2.513,0-4.553-2.001-4.553-4.47c0-2.466,2.04-4.466,4.553-4.466C667.167,385.057,669.208,387.057,669.208,389.523"/>
<path fill="#FFFFFF" stroke="#000000" stroke-width="2" stroke-miterlimit="10" d="M667.298,120.975c0,2.468-2.041,4.47-4.548,4.47
	c-2.513,0-4.553-2.001-4.553-4.47c0-2.466,2.04-4.466,4.553-4.466C665.257,116.509,667.298,118.509,667.298,120.975"/>
<path fill="#FFFFFF" stroke="#000000" stroke-width="2" stroke-miterlimit="10" d="M236.726,398.781c0,2.468-2.041,4.47-4.548,4.47
	c-2.513,0-4.553-2.001-4.553-4.47c0-2.466,2.04-4.466,4.553-4.466C234.685,394.314,236.726,396.315,236.726,398.781"/>
</svg>
